<svg xmlns="http://www.w3.org/2000/svg" xmlns:xlink="http://www.w3.org/1999/xlink" viewBox="0 0 2949.85 1773.31"><defs><style>.cls-1{fill:none;}.cls-2{fill:#c7ebff;}.cls-3{fill:#6bb2e3;}.cls-4{fill:#425899;}.cls-5{fill:#a3cfff;}.cls-6{fill:#a1d3ff;}.cls-7{fill:#61b8ff;}.cls-8{fill:#123e80;}.cls-9{fill:#9eddff;}.cls-10{fill:#0d192b;}.cls-11{fill:#1e62cc;}.cls-12{fill:#1a56b3;}.cls-13{fill:#4a82db;}.cls-14{fill:#aae0ff;}.cls-15{fill:#f7a594;}.cls-16{fill:#e6836f;}.cls-17{fill:#73382a;}.cls-18{fill:#a65b4a;}.cls-19{fill:#fff;}.cls-20{fill:#1e1e1e;}.cls-21{fill:#1951a6;}.cls-22{fill:#d9f1ff;}.cls-23{fill:#f7b28a;}.cls-24{clip-path:url(#clip-path);}.cls-25{fill:#1b658f;}.cls-26{fill:#2997d6;}.cls-27{fill:#2b7eab;}.cls-28{fill:#69bff0;}.cls-29{fill:#bae7ff;}.cls-30{fill:#66a1ff;}.cls-31{fill:#adadad;}.cls-32{fill:#474747;}.cls-33{fill:#2b2b2b;}.cls-34{fill:#d9f3ff;}.cls-35{fill:#80b2ff;}.cls-36{fill:#0e0e0e;}.cls-37{fill:#ffa599;}.cls-38{fill:#dbf2ff;}.cls-39{fill:#2a518c;}.cls-40{fill:#fd5655;}.cls-41{fill:#e64847;}.cls-42{fill:#e87c5d;}.cls-43{fill:#bd4a31;}</style><clipPath id="clip-path" transform="translate(-260.08 -409.89)"><path class="cls-1" d="M1128.2,1092.84l11.32,101.49s-51.36,96.27-17.5,121.38,65.06-1.9,74.19-64.68-24.73-178.45-54.79-200.9-139.25-20.55-149.91-7.61-117.23,251.35-75.24,300.24,177.36,4.38,177.36,4.38L1071.7,1205.5l-59.54-42s-3.5-77-3.09-75.82,8.3-37.75,8.3-37.75c37.4-10.81,65.71-12.15,102.61,2.75Z"/></clipPath></defs><g id="room"><path class="cls-2" d="M464.13,2170c234.38-314.21,82.19-592.78,7.07-965.38C287.09,611.2,1003.93,132.18,1720.81,595.81c444.71,287.61,859.93-3.51,1193.48,298.71,265.27,240.34,1.11,747.5-4.62,976.05-4.51,180.16,150.55,299.43,150.55,299.43Z" transform="translate(-260.08 -409.89)"/><path id="shadow" d="M3204.71,2181.83H265.29a5.21,5.21,0,0,1-5.21-5.21h0a5.21,5.21,0,0,1,5.21-5.22H3204.71a5.22,5.22,0,0,1,5.22,5.22h0A5.22,5.22,0,0,1,3204.71,2181.83Z" transform="translate(-260.08 -409.89)"/><g id="plant"><path class="cls-3" d="M2750,2087.94h0a121.65,121.65,0,0,0,121.66-121.65V1800.43H2628.36v165.86A121.65,121.65,0,0,0,2750,2087.94Z" transform="translate(-260.08 -409.89)"/><rect class="cls-4" x="2871.68" y="1925.77" width="13.48" height="257.43" transform="translate(5496.77 3699.08) rotate(180)"/><rect class="cls-4" x="2614.88" y="1925.77" width="13.48" height="257.43" transform="translate(4983.17 3699.08) rotate(180)"/><rect class="cls-4" x="2718.07" y="1925.77" width="13.48" height="257.43" transform="translate(5189.54 3699.08) rotate(180)"/><rect class="cls-4" x="2749.71" y="1965.97" width="13.48" height="257.43" transform="translate(4591.06 -1071.65) rotate(90)"/><path class="cls-5" d="M2709.55,1487.14c22.73,12.1,4.77,41.82,14.08,70s46.71,27.49,32.58,77.91c-8.7,31-39.52,11.59-38.82,52s16,39.38,4.13,60.14c-20.68,36.18-91.18,15.94-91.73-24.46s33.26-54.15,4.69-72.94-40-27.34-21.2-54.21c23.28-33.26,59.37-32.25,49.27-58.21S2679.48,1471.14,2709.55,1487.14Z" transform="translate(-260.08 -409.89)"/><path class="cls-4" d="M2697.54,1799.52l-5.93,1.7c-40.23-140.2-2.56-272.21-2.17-273.52l5.91,1.73C2695,1530.73,2657.82,1661.1,2697.54,1799.52Z" transform="translate(-260.08 -409.89)"/><path class="cls-6" d="M3011.2,1457.72c16.78,30.1-25,50.49-35,88.93s34.78,49.49-17.72,95.93c-32.33,28.6-40.26,12.19-49.52,72.88-8.16,53.42-50.95,5.23-79.36,37.82-36.66,42-101.8-42.63-73.09-88.47s65.51-36.29,47-78.17-.78-75.08,39.87-91.64c50.32-20.5,71,21.55,78.5-15S2989,1417.9,3011.2,1457.72Z" transform="translate(-260.08 -409.89)"/><path class="cls-4" d="M2770.89,1800.26c55.87-184.59,192.28-304.11,193.65-305.3l-5.39-6.24c-1.39,1.2-139.6,122.29-196.15,309.15Z" transform="translate(-260.08 -409.89)"/></g></g><g id="characters"><g id="doctor"><path class="cls-7" d="M699.25,999.27c2.5,15.15,10.92,28.89,22.49,38.81s26.31,16.07,41.46,16.07H905.35c20,0,35.78-10.76,42.71-26.79a50,50,0,0,0,3.1-28.09c-2.5-15.15-10.92-28.88-22.44-38.8s-26.31-16.07-41.46-16.07H745.11a50.46,50.46,0,0,0-19.26,3.7C706.67,956.08,695.43,976,699.25,999.27Z" transform="translate(-260.08 -409.89)"/><path class="cls-8" d="M898.15,1109.32h0a8,8,0,0,0,7.64-10.49l-19.09-59.24a8,8,0,0,0-7.64-5.56h0a8,8,0,0,0-7.64,10.48l19.09,59.24A8,8,0,0,0,898.15,1109.32Z" transform="translate(-260.08 -409.89)"/><path class="cls-8" d="M804,1109.32h0a8,8,0,0,0,7.64-10.49l-19.09-59.24a8,8,0,0,0-7.64-5.56h0a8,8,0,0,0-7.64,10.48l19.09,59.24A8,8,0,0,0,804,1109.32Z" transform="translate(-260.08 -409.89)"/><path class="cls-9" d="M722.79,976.11c2.49,15.15,10.91,28.89,22.48,38.84S771.58,1031,786.73,1031H928.88a50,50,0,0,0,19.18-3.66,50,50,0,0,0,3.1-28.09c-2.5-15.15-10.92-28.88-22.44-38.8s-26.31-16.07-41.46-16.07H745.11a50.46,50.46,0,0,0-19.26,3.7A50,50,0,0,0,722.79,976.11Z" transform="translate(-260.08 -409.89)"/><rect class="cls-10" x="1042.44" y="1684.79" width="26.79" height="49.86"/><rect class="cls-10" x="841.54" y="1684.79" width="26.79" height="49.86"/><rect class="cls-10" x="617" y="1684.79" width="26.79" height="49.86"/><ellipse class="cls-10" cx="637.04" cy="1734.49" rx="20.43" ry="32.3"/><ellipse class="cls-10" cx="656.84" cy="1734.49" rx="20.43" ry="32.3"/><path class="cls-10" d="M924.79,2174.07c-8.5,6.63-32.25,3.62-35.57.19l-.16-59.59c6.38-5.58,28.87-5.38,35.72-.3Z" transform="translate(-260.08 -409.89)"/><ellipse class="cls-11" cx="658.77" cy="1733.61" rx="14" ry="22.14"/><ellipse class="cls-10" cx="657.29" cy="1734.25" rx="8.53" ry="13.49"/><ellipse class="cls-10" cx="850.9" cy="1734.49" rx="20.43" ry="32.3"/><ellipse class="cls-10" cx="831.1" cy="1734.49" rx="20.43" ry="32.3"/><path class="cls-10" d="M1083.3,2174.07c8.5,6.63,32.25,3.62,35.58.19l.15-59.59c-6.38-5.58-28.87-5.38-35.72-.3Z" transform="translate(-260.08 -409.89)"/><ellipse class="cls-11" cx="829.17" cy="1733.61" rx="14" ry="22.14"/><ellipse class="cls-10" cx="830.65" cy="1734.25" rx="8.53" ry="13.49"/><ellipse class="cls-10" cx="1054.95" cy="1734.49" rx="20.43" ry="32.3"/><ellipse class="cls-10" cx="1035.15" cy="1734.49" rx="20.43" ry="32.3"/><path class="cls-10" d="M1287.35,2174.07c8.5,6.63,32.26,3.62,35.58.19l.15-59.59c-6.38-5.58-28.87-5.38-35.72-.3Z" transform="translate(-260.08 -409.89)"/><ellipse class="cls-11" cx="1033.22" cy="1733.61" rx="14" ry="22.14"/><ellipse class="cls-10" cx="1034.71" cy="1734.25" rx="8.53" ry="13.49"/><rect class="cls-10" x="839.37" y="1269.79" width="39.02" height="406.4"/><path class="cls-12" d="M1347.89,2099.59c0-.34.3-.67.3-1,0-21.52-106.36-39-237.58-39S873,2077.07,873,2098.59c0,.33.25.66.3,1Z" transform="translate(-260.08 -409.89)"/><rect class="cls-12" x="1086.54" y="1722.95" width="63.43" height="77.36" transform="translate(1976.44 3113.37) rotate(180)"/><rect class="cls-12" x="1086.54" y="1995.23" width="63.43" height="77.36" transform="translate(1976.44 3657.93) rotate(180)"/><path class="cls-13" d="M999.77,1072.74v.08c-.84-.08-1.68-.08-2.51-.08Z" transform="translate(-260.08 -409.89)"/><path class="cls-9" d="M698.82,1111.14a52.4,52.4,0,0,0,1.42,11.95l131.48,508.19a57.17,57.17,0,0,0,2.22,7.29A85.34,85.34,0,0,0,919,1703.13l137.45-3.56h270.89a59.89,59.89,0,0,0,41.83-16.77,56.07,56.07,0,0,0,17.4-40.45,50.39,50.39,0,0,0-2.56-16c-7.59-23.18-31.4-39-58.27-39,0,0-121.82,3.31-157.32-30.81s-115.64-431.1-115.64-431.1c-6.79-28.22-35.33-51.27-64.55-52.57-.88-.08-1.76-.08-2.6-.08,0,0-183.9-1.64-240.28-1.39-4.28,0-7.84,0-10.52.09-2.48,0-4,.08-4.57.12l-.17,0C711.06,1075.81,698.82,1091.32,698.82,1111.14Zm172.94,474h3.43l1.55,6.75-2.18-2.94Z" transform="translate(-260.08 -409.89)"/><path class="cls-12" d="M884.68,1699.75c0,.25-.29.5-.29.75,0,16.17,101.42,29.28,226.52,29.28s226.53-13.11,226.53-29.28c0-.25-.25-.5-.3-.75Z" transform="translate(-260.08 -409.89)"/><path class="cls-7" d="M698.82,1111.14a52.4,52.4,0,0,0,1.42,11.95l131.48,508.19a57.17,57.17,0,0,0,2.22,7.29A85.34,85.34,0,0,0,919,1703.13l137.45-3.56h270.89a59.89,59.89,0,0,0,41.83-16.77,56.07,56.07,0,0,0,17.4-40.45,50.39,50.39,0,0,0-2.56-16c-15.51,40.36-468.27,43.19-499.75-9.06-30.77-26.7-96.62-481.48-138.91-545.91-4.28,0-7.84,0-10.52.09-2.48,0-4,.08-4.57.12l-.17,0C711.06,1075.81,698.82,1091.32,698.82,1111.14Z" transform="translate(-260.08 -409.89)"/><path class="cls-14" d="M927.39,1136.47c41.83-31.16,185.34-55.36,277.19-12.3,14.59,13.82,35.59,64,48.71,111.14l36.29,393.58H979.06Z" transform="translate(-260.08 -409.89)"/><path class="cls-15" d="M1093.89,1154.73c-49.37,7.18-80.07-27.27-87.29-41.68l19.87-123.35,40.17,17.93a168.2,168.2,0,0,1,46.94,10.87l12.74,65.79,2.81,14.26C1135.54,1112.59,1143.26,1147.54,1093.89,1154.73Z" transform="translate(-260.08 -409.89)"/><path class="cls-16" d="M1039.32,1021c1.61,15.26,21.69,77.11,88.35,70.68l-12.37-64.34Z" transform="translate(-260.08 -409.89)"/><path class="cls-15" d="M1194.5,944c-2.28,20-7.84,63.86-15.57,82.19-11.76,27.91-48.15,50.49-71.91,46.65-26.8-6.52-59-27.06-72.14-50.83-6.17-16.67-16.21-54.57-16.53-84.7-.66-62.87,53.73-98.29,105.51-92.41S1201.62,881.46,1194.5,944Z" transform="translate(-260.08 -409.89)"/><path class="cls-17" d="M1022.3,980c-4-22,12.41-24.6,22.64-5.06,2.23-14.75.57-60.83,19.25-69.42,21.23-10.11,88.38,20.9,139.29-5,0,0-6.58-70.72-110.49-66.51C970.74,852.71,1022.3,980,1022.3,980Z" transform="translate(-260.08 -409.89)"/><ellipse class="cls-15" cx="1023.34" cy="973.2" rx="18.75" ry="24.29" transform="translate(-503.37 -61.17) rotate(-17.32)"/><path class="cls-18" d="M1155.35,1027.7c-4,.74-11,4-17.91,7.72-10.06,5.33-19.91,11.41-19.91,11.41s-29.75-18-28.93-46.86c.4.44.81.87,1.22,1.3C1112.93,1025.09,1155.35,1027.7,1155.35,1027.7Z" transform="translate(-260.08 -409.89)"/><path class="cls-19" d="M1155.35,1027.7c-4,.74-11,4-17.91,7.72-30.17-6.9-42.57-23.12-47.62-34.15C1112.93,1025.09,1155.35,1027.7,1155.35,1027.7Z" transform="translate(-260.08 -409.89)"/><path class="cls-18" d="M1153.76,1013.71a22.34,22.34,0,0,1-10.83-3.94,1.23,1.23,0,1,1,1.49-2c.4.3,9.84,7.28,18.4.67,4.7-3.63,3.47-6.05.2-12.54a82.14,82.14,0,0,1-9.42-31.26,1.23,1.23,0,0,1,2.45-.25,79.81,79.81,0,0,0,9.17,30.4c3.38,6.69,5.41,10.73-.9,15.6A15.29,15.29,0,0,1,1153.76,1013.71Z" transform="translate(-260.08 -409.89)"/><ellipse class="cls-20" cx="1116.34" cy="952.75" rx="8.39" ry="4.62" transform="translate(-163.32 1598.52) rotate(-86.48)"/><path class="cls-20" d="M1185.64,956.07c-.26,4.21-2.35,7.51-4.67,7.37s-4-3.67-3.74-7.89,2.35-7.51,4.68-7.37S1185.9,951.85,1185.64,956.07Z" transform="translate(-260.08 -409.89)"/><path class="cls-17" d="M1190.32,903.76s51-5,35-54.71c-15.79,16.06-31.85,8.21-31.85,8.21s18.72-23.47-12.24-57.83c-4.94,21.43-47.47,30.86-71.81,24.55-38.56-10-77.57,3.79-81.71,41,0,0-25.23,6.15-16.44,56.29,38.95-1.37,56.19-36.89,84.92-42S1149.41,909.55,1190.32,903.76Z" transform="translate(-260.08 -409.89)"/><path class="cls-18" d="M1141.09,1065.05s-18.19,4.27-28.19,4c-13.2-.31-34.07-7.61-34.07-7.61l34.64,18.53Z" transform="translate(-260.08 -409.89)"/><polygon class="cls-21" points="847.16 745.9 842.25 763.57 877.23 982.75 858.76 1018.36 825.83 983.02 831.27 763.84 823.33 752.14 832.61 738.85 847.16 745.9"/><path class="cls-7" d="M1128.19,1092.07c-.67,26-21,40.81-35.57,55.64-43.21-11.28-76-37.75-85.56-62.27l-20.38,20.23c3.63,31.65,29,64.37,67.55,97.73,5.88-17,14.91-32.59,40.6-46.63l57.82,16.46c3.27-22.49,5.81-43.45-7.33-69.88Z" transform="translate(-260.08 -409.89)"/><path class="cls-17" d="M1448.41,2174.18c20.64,0,20.64-33.56,0-33.56,0,0-82.13-22.92-84.52-22.92s-90.1,2.45-90.1,2.45c-11.57,16.07-7.72,38.76-6.5,56.21Z" transform="translate(-260.08 -409.89)"/><path class="cls-17" d="M981,2174.83c-1.52-17.37-4-35.9,8-51.7,20.44-7.52,59.12-24.89,99-2.43,0,0,.76,11.24,31.66,24,7.68,8.73,10.77,17.51,7.27,30.13Z" transform="translate(-260.08 -409.89)"/><path class="cls-10" d="M1270.49,2117.69l86.63-445.31L1101.39,1629v-122.1l196.79.14c-8.77,0,187.62-13.57,215.13,93s-139.24,516.27-139.24,516.27c-23.82-3.28-78.68,13.25-99.14,19.67C1257.45,2141.54,1252.65,2131.59,1270.49,2117.69Z" transform="translate(-260.08 -409.89)"/><path class="cls-10" d="M1254.72,1507.07,1062,1664.44l15.9,455.37c-50.84-28-106.56,25.43-110.84,19.27,0,0-6.16-2.94,4.07-27.32-19.5-98-90.58-465.47-68.44-506.33,25.57-47.2,68.46-101.13,68.46-101.13Z" transform="translate(-260.08 -409.89)"/><path class="cls-19" d="M991.94,1100.56c2.95,11.8,37.8,361.69,34.85,414.79S894.46,1580.13,897,1689.42c2.67,116.09,6.18,166.37,6.18,166.37-47.95-7-73.68-63.15-80.69-101.74-11-67-3.14-143.19,46.78-239.75,0,0,13.32-365.34,29.94-377.16C928.82,1116.05,991.94,1100.56,991.94,1100.56Z" transform="translate(-260.08 -409.89)"/><path class="cls-22" d="M966,1257.71s-16.6,48.45-16.6,68.53,97.19,62.28,97.19,62.28H887.78v-75.13Z" transform="translate(-260.08 -409.89)"/><path class="cls-23" d="M1054.12,1403.56s19.05-17.21,49.25-19.61,56.69,55.08,56.69,55.08H1055.55Z" transform="translate(-260.08 -409.89)"/><path class="cls-23" d="M1111.39,1384.67s47.53,13.44,54.17,15.21c3.1,12.53-29.61,7.12-44.75,1.55C1104.14,1395.29,1111.39,1384.67,1111.39,1384.67Z" transform="translate(-260.08 -409.89)"/><path class="cls-19" d="M902.91,1133.49c-29,18-109,206.62-109.79,257.39-.33,22.38,9,44.56,51.57,47.29,23.49,1.51,222.79,3.22,222.79,3.22l-2.53-52.87-150.23-42.88,45.89-76.15C1015.49,1241.24,968.49,1098.46,902.91,1133.49Z" transform="translate(-260.08 -409.89)"/><path class="cls-15" d="M1418.87,1132.66s-18.4-45-16.14-57.28,47.52-28.12,49.75-22.68,6.94,18.88-22.68,27C1449.65,1098,1471.93,1134.4,1418.87,1132.66Z" transform="translate(-260.08 -409.89)"/><path class="cls-15" d="M1416.48,1134.7s-3.76-40.6,2.83-56.93C1428.07,1056,1454,1042,1454,1042s45.82,36,47.23,42.46-36.77,46.32-36.77,46.32S1436,1157.81,1416.48,1134.7Z" transform="translate(-260.08 -409.89)"/><path class="cls-15" d="M1421.91,1081.44s11.2-101.29,27.16-98.35c7.36,1.35-3,98.08-3,98.08Z" transform="translate(-260.08 -409.89)"/><path class="cls-16" d="M1413.73,1119.89a.53.53,0,0,0,.33,0,.54.54,0,0,0,.33-.69c-4.72-13.25-12.45-36.54-11.12-43.72,1.74-9.46,31.38-21.89,44.16-23.22,3.81-.4,4.45.4,4.55.66,1.48,3.59,2.68,7.89.41,12.5-2.84,5.77-10.49,10.39-22.73,13.73l-1,.25.72.67c8.25,7.59,18.1,19.54,21,30.29a.55.55,0,0,0,.67.38.53.53,0,0,0,.38-.66c-2.9-10.67-12.42-22.43-20.62-30.15,12-3.4,19.58-8.12,22.48-14,2.8-5.68.57-11.09-.37-13.4-.52-1.23-2.36-1.67-5.67-1.32-13,1.35-43.24,13.88-45.12,24.11-1.37,7.42,6.41,30.92,11.17,44.27A.51.51,0,0,0,1413.73,1119.89Z" transform="translate(-260.08 -409.89)"/><path class="cls-16" d="M1468.81,1100.66l.46.12.37.08.21-.32c6.5-10.27,22-14.41,22.17-14.45a.54.54,0,0,0,.39-.66.54.54,0,0,0-.66-.39c-.65.17-15.76,4.2-22.61,14.59l0,0c-9.74-2.8-23.43-25.83-23.56-26.06a.54.54,0,0,0-.94.55C1445.18,1075.08,1458.65,1097.73,1468.81,1100.66Z" transform="translate(-260.08 -409.89)"/><polygon class="cls-15" points="1158.17 711.79 1141.58 775.03 1192.72 791.44 1198.98 719.23 1158.17 711.79"/><path class="cls-19" d="M1261.49,1152.66l104.57,105,46.52-120.8,60.86,19.17s-.74,176.52-53.55,214.53c-80.87,49.41-219.44-101.33-219.44-101.33C1146.25,1193.48,1229.07,1108.69,1261.49,1152.66Z" transform="translate(-260.08 -409.89)"/><path class="cls-19" d="M1146,1104.92s27.94,383.78,78.1,416.24,227.39,10.35,227.39,10.35-176.84-63.36-179.79-110.57-14.36-272.2-14.36-272.2C1240.88,1128.58,1188.76,1104.7,1146,1104.92Z" transform="translate(-260.08 -409.89)"/><g class="cls-24"><ellipse class="cls-25" cx="1153.55" cy="1284.97" rx="30.04" ry="16.93" transform="matrix(0.18, -0.98, 0.98, 0.18, -579.52, 1776.26)"/><ellipse class="cls-26" cx="1165.11" cy="1286" rx="19.57" ry="11.03" transform="translate(-571.07 1788.47) rotate(-79.54)"/><path class="cls-10" d="M1160.64,1263a2.58,2.58,0,0,0,2.58-2.51c0-.58,1.46-59.55-7.29-121.28-8.11-57.15-55.71-84.82-96.5-86.34-39.55-1.48-70.05,20.14-77.69,55.05-6.87,31.43,2,85,2.41,87.31a2.58,2.58,0,1,0,5.08-.85c-.09-.55-9.11-54.9-2.45-85.35,7.08-32.36,35.55-52.38,72.45-51,38.72,1.45,83.9,27.7,91.59,81.92,8.69,61.28,7.26,119.83,7.25,120.42a2.56,2.56,0,0,0,2.5,2.64Z" transform="translate(-260.08 -409.89)"/><path class="cls-10" d="M961.9,1342.8l16.37-2.1a2.58,2.58,0,0,0-.66-5.12l-12.39,1.6c-16.82-43.55-17.79-90.33-2.23-114.33,7.67-11.83,19-18.15,33.65-18.76a47.91,47.91,0,0,1,36,13.48c30.93,29,35.91,95.9,36.62,110.26l-9.37-.36a2.58,2.58,0,1,0-.2,5.15l14.9.57-.06-2.73c-.07-3.37-2.2-82.73-38.35-116.64-11.21-10.52-24.58-15.53-39.75-14.89-16.42.7-29.12,7.8-37.76,21.12s-12.73,32.55-11.8,55.57c.84,21.05,5.92,44.25,14.3,65.32Z" transform="translate(-260.08 -409.89)"/><path class="cls-25" d="M1006.72,1195.53l-.14,12.72a33.7,33.7,0,0,0-28.87,3.62c-3.69-5.1-6.29-8.94-6.29-8.94S983,1190.44,1006.72,1195.53Z" transform="translate(-260.08 -409.89)"/><path class="cls-25" d="M995.9,1200l-2.77-14.47c-4-2.2-12.68.13-14,3.28l3.2,14.09Z" transform="translate(-260.08 -409.89)"/></g><path class="cls-27" d="M1202.92,1388.85c16.81-1.72,52.13-23.66,60.55-30.92l102.59,83h-159Z" transform="translate(-260.08 -409.89)"/><path class="cls-28" d="M1351.06,1441.14c-4.31,0-132.77-78.37-132.77-78.37-28.24,23.35-57.78,34.71-87.65,43.11,8.73,17.33,21.51,29,35.76,35.52Z" transform="translate(-260.08 -409.89)"/><rect class="cls-29" x="712.15" y="1416.2" width="158.5" height="24.63" transform="translate(1322.72 2447.15) rotate(180)"/><rect class="cls-28" x="577.21" y="1416.2" width="134.94" height="24.63" transform="translate(1029.28 2447.15) rotate(180)"/><polygon class="cls-28" points="589.15 1014.35 462.25 1014.35 521.15 1026.13 589.15 1014.35"/></g><g id="table"><rect class="cls-21" x="501" y="1061.17" width="26.63" height="698.42"/><rect class="cls-21" x="501" y="1061.45" width="26.63" height="59.96"/><rect class="cls-21" x="1967.12" y="2051.14" width="26.64" height="121.26" transform="translate(3700.81 3813.64) rotate(180)"/><rect class="cls-21" x="1806.82" y="2051.14" width="26.64" height="121.26" transform="translate(3380.21 3813.64) rotate(180)"/><polygon class="cls-21" points="275.79 1053.7 275.79 1763.49 250.46 1759.48 250.46 1053.7 275.79 1053.7"/><rect class="cls-21" x="1472.92" y="2051.14" width="26.64" height="121.26" transform="translate(2712.4 3813.64) rotate(180)"/><rect class="cls-21" x="1612.76" y="2051.14" width="26.64" height="121.26" transform="translate(2992.08 3813.64) rotate(180)"/><rect class="cls-21" x="437.7" y="1441" width="1285.87" height="30.01" transform="translate(1901.21 2502.11) rotate(180)"/><rect class="cls-21" x="1203.12" y="1058.54" width="164.59" height="584.62"/><rect class="cls-21" x="1344.86" y="1058.54" width="404.89" height="584.62"/><rect class="cls-30" x="1365" y="1078.83" width="373.74" height="564.34"/><rect class="cls-30" x="724.53" y="1441" width="1285.87" height="30.01" transform="translate(2474.87 2502.11) rotate(180)"/><polygon class="cls-31" points="1523.76 1031.11 1594.71 1031.11 1580.72 909.8 1509.78 909.8 1523.76 1031.11"/><polygon class="cls-32" points="1503.12 909.8 1503.17 910.29 1510.73 975.82 1517.11 1031.1 1588.06 1031.1 1575.06 918.33 1575.02 917.98 1574.07 909.8 1503.12 909.8"/><rect class="cls-31" x="1680.72" y="1428.34" width="225.35" height="12.42" transform="translate(3326.72 2459.22) rotate(180)"/><rect class="cls-32" x="1404.91" y="1018.45" width="180.34" height="12.42"/><polygon class="cls-33" points="1503.17 910.29 1510.73 975.82 1575.06 918.33 1575.39 918.02 1575.02 917.98 1503.17 910.29"/><path class="cls-31" d="M1582.52,1327.49h385a16.8,16.8,0,0,0,16.43-15.19l22-267.39a13.77,13.77,0,0,0-13.93-15.18H1607a16.8,16.8,0,0,0-16.43,15.18l-22,267.39A13.78,13.78,0,0,0,1582.52,1327.49Z" transform="translate(-260.08 -409.89)"/><path class="cls-32" d="M1575.38,1327.15h385a16.79,16.79,0,0,0,16.43-15.18l22-267.39a13.77,13.77,0,0,0-13.94-15.18h-385a16.79,16.79,0,0,0-16.43,15.18l-22,267.39A13.77,13.77,0,0,0,1575.38,1327.15Z" transform="translate(-260.08 -409.89)"/><polygon class="cls-34" points="1323.77 895.39 1697.54 895.39 1717.9 640.36 1344.13 640.36 1323.77 895.39"/><rect class="cls-31" x="1236.42" y="1018.45" width="117.83" height="12.43"/><polygon class="cls-32" points="1113.16 1026.1 1113.16 1030.88 1236.42 1030.88 1236.42 1018.45 1113.16 1026.1"/><path class="cls-35" d="M1649.93,1261.11l256.29-3.1c10.77-.13,20.16-9.25,21-20.37l9.55-131.16c.81-11.12-7.27-20-18-19.9l-256.29,3.1c-10.77.13-20.16,9.25-21,20.37l-9.55,131.16C1631.08,1252.33,1639.16,1261.24,1649.93,1261.11Z" transform="translate(-260.08 -409.89)"/><path class="cls-34" d="M1672.11,1144.16l75.26-.91a4.85,4.85,0,0,0,4.62-4.48h0a3.94,3.94,0,0,0-4-4.38l-75.27.91a4.83,4.83,0,0,0-4.61,4.48h0A3.94,3.94,0,0,0,1672.11,1144.16Z" transform="translate(-260.08 -409.89)"/><path class="cls-34" d="M1670.34,1168.37l100.28-1.21a4.84,4.84,0,0,0,4.62-4.48h0a3.94,3.94,0,0,0-4-4.38L1671,1159.51a4.84,4.84,0,0,0-4.62,4.48h0A4,4,0,0,0,1670.34,1168.37Z" transform="translate(-260.08 -409.89)"/><path class="cls-34" d="M1668.27,1196.89l100.28-1.21a4.84,4.84,0,0,0,4.61-4.49h0a3.94,3.94,0,0,0-4-4.38L1668.91,1188a4.84,4.84,0,0,0-4.61,4.49h0A3.94,3.94,0,0,0,1668.27,1196.89Z" transform="translate(-260.08 -409.89)"/><path class="cls-34" d="M1666.19,1225.4l100.28-1.21a4.85,4.85,0,0,0,4.62-4.48h0a3.94,3.94,0,0,0-4-4.38l-100.28,1.21a4.85,4.85,0,0,0-4.62,4.48h0A3.94,3.94,0,0,0,1666.19,1225.4Z" transform="translate(-260.08 -409.89)"/><path class="cls-34" d="M1861.92,1146c-7.78,6.7-13.25,55.12-3.15,68.71,4.63,6.23,12.61,6.29,19.55,8,8.2,2.08,14.8,11.25,18.21,6.89,6.3-8,7.82-40.35-2.65-61.24C1890.24,1161.07,1869.71,1139.25,1861.92,1146Z" transform="translate(-260.08 -409.89)"/><path class="cls-34" d="M1829.5,1146c7.79,6.7,13.25,55.12,3.15,68.71-4.63,6.23-12.61,6.29-19.54,8-8.21,2.08-14.81,11.25-18.22,6.89-6.3-8-7.82-40.35,2.65-61.24C1801.18,1161.07,1821.72,1139.25,1829.5,1146Z" transform="translate(-260.08 -409.89)"/><path class="cls-34" d="M1841.5,1164.49v-51.27h7.27v50.52h0c0,.42.22,10.31,10.23,12.51l-1.21,5.49a17.79,17.79,0,0,1-12.56-9.64,17.8,17.8,0,0,1-12.75,10l-1.21-5.49C1840.34,1174.64,1841.38,1166.38,1841.5,1164.49Z" transform="translate(-260.08 -409.89)"/></g><g id="lady"><rect class="cls-10" x="2025.05" y="2085.12" width="26.79" height="49.86" transform="translate(3816.81 3810.21) rotate(180)"/><rect class="cls-10" x="2225.95" y="2085.12" width="26.79" height="49.86" transform="translate(4218.61 3810.21) rotate(180)"/><rect class="cls-10" x="2450.49" y="2085.12" width="26.79" height="49.86" transform="translate(4667.7 3810.21) rotate(180)"/><ellipse class="cls-10" cx="2197.16" cy="1724.93" rx="20.43" ry="32.3"/><ellipse class="cls-10" cx="2177.36" cy="1724.93" rx="20.43" ry="32.3"/><path class="cls-10" d="M2429.56,2164.51c8.5,6.64,32.26,3.63,35.58.2l.15-59.59c-6.38-5.58-28.87-5.38-35.72-.31Z" transform="translate(-260.08 -409.89)"/><ellipse class="cls-11" cx="2175.44" cy="1724.06" rx="14" ry="22.14"/><ellipse class="cls-10" cx="2176.92" cy="1724.69" rx="8.53" ry="13.49"/><ellipse class="cls-10" cx="1983.3" cy="1724.93" rx="20.43" ry="32.3"/><ellipse class="cls-10" cx="2003.1" cy="1724.93" rx="20.43" ry="32.3"/><path class="cls-10" d="M2271.06,2164.51c-8.5,6.64-32.26,3.63-35.58.2l-.15-59.59c6.37-5.58,28.87-5.38,35.72-.31Z" transform="translate(-260.08 -409.89)"/><ellipse class="cls-11" cx="2005.03" cy="1724.06" rx="14" ry="22.14"/><ellipse class="cls-10" cx="2003.55" cy="1724.69" rx="8.53" ry="13.49"/><ellipse class="cls-10" cx="1779.25" cy="1724.93" rx="20.43" ry="32.3"/><ellipse class="cls-10" cx="1799.05" cy="1724.93" rx="20.43" ry="32.3"/><path class="cls-10" d="M2067,2164.51c-8.49,6.64-32.25,3.63-35.57.2l-.15-59.59c6.37-5.58,28.86-5.38,35.71-.31Z" transform="translate(-260.08 -409.89)"/><ellipse class="cls-11" cx="1800.98" cy="1724.06" rx="14" ry="22.14"/><ellipse class="cls-10" cx="1799.5" cy="1724.69" rx="8.53" ry="13.49"/><rect class="cls-10" x="2215.89" y="1670.12" width="39.02" height="406.4" transform="translate(4210.72 3336.75) rotate(180)"/><path class="cls-12" d="M2006.47,2090c-.06-.33-.31-.66-.31-1,0-21.51,106.37-39,237.58-39s237.59,17.44,237.59,39c0,.34-.26.67-.31,1Z" transform="translate(-260.08 -409.89)"/><rect class="cls-12" x="1944.31" y="1303.51" width="63.43" height="77.36"/><rect class="cls-12" x="1944.31" y="1575.79" width="63.43" height="77.36"/><path class="cls-13" d="M2354.58,1063.19v.08c.84-.08,1.68-.08,2.52-.08Z" transform="translate(-260.08 -409.89)"/><path class="cls-9" d="M2624.27,1062.06a.63.63,0,0,1-.17,0c-.55,0-2.1-.09-4.57-.13-2.68,0-6.25-.08-10.52-.08-56.38-.25-240.28,1.38-240.28,1.38a25.49,25.49,0,0,0-2.6.09c-29.22,1.3-57.77,24.35-64.56,52.56,0,0-80.09,396.94-115.63,431.1s-157.33,30.81-157.33,30.81c-26.87,0-50.68,15.85-58.27,39a50.65,50.65,0,0,0-2.55,16,56.07,56.07,0,0,0,17.39,40.46A59.91,59.91,0,0,0,2027,1690H2297.9l175.84,3.57A85.34,85.34,0,0,0,2558.8,1629a57.17,57.17,0,0,0,2.22-7.29l93.09-508.19a51.87,51.87,0,0,0,1.43-12C2655.54,1081.76,2643.3,1066.25,2624.27,1062.06Zm-106.09,517.37-2.18,2.93,1.55-6.74H2521Z" transform="translate(-260.08 -409.89)"/><path class="cls-12" d="M2508.06,1690.2c.05.25.29.49.29.75,0,16.17-139.8,29.27-264.91,29.27s-226.52-13.1-226.52-29.27c0-.26.24-.5.29-.75Z" transform="translate(-260.08 -409.89)"/><path class="cls-7" d="M2655.54,1101.59a51.87,51.87,0,0,1-1.43,12c-3.51,10.16-90.44,506-95.31,515.46a85.33,85.33,0,0,1-85.06,64.58c-104.1-3.37-340.59-4.2-446.72-3.57-37.83.78-68.66-36.87-56.68-73.23-13.06,61.65,495,69.2,548.15-11.59,37.85-28.32,16.93-566.4,105.77-543.13C2643.3,1066.25,2655.54,1081.76,2655.54,1101.59Z" transform="translate(-260.08 -409.89)"/><path class="cls-36" d="M2378.69,1052.94c49.82,350.84-283.05,300.11-273.42,158.9,8.3-121.66,81.92-135.89,62.74-215.67C2147,908.61,2178.12,832,2261.12,832c81.29,0,129.94,59.24,112.58,162.24C2370.26,1014.67,2376.57,1036,2378.69,1052.94Z" transform="translate(-260.08 -409.89)"/><path class="cls-37" d="M2066.73,2035.14c.61,3.48,12.12,70.74,12.12,70.74l46.26-4,6.71-82.42Z" transform="translate(-260.08 -409.89)"/><path class="cls-10" d="M2361.11,1476.65s38.71,108.77-25.28,127.41-171,25.71-171,25.71l-34.57,430.28c-12.82,5.1-26.55,9.64-58.52,3.12,0,0-78.76-433.14-56-485.06s200.42-104.73,200.42-104.73Z" transform="translate(-260.08 -409.89)"/><path class="cls-19" d="M2139.08,2113.15c-3.44,8.84-30.1,21.4-59.94,30.56-20.39,6.27-42.27,10.94-59.23,11.75-10.59.51-19.26-.48-24.45-3.54,0,0-13.17-34.06,16.09-52.83s62.27-22.53,62.27-22.53c4.22,6,11.07,10,19.53,11a43.79,43.79,0,0,0,18.86-2.28,68.21,68.21,0,0,0,17.06-8.7,46,46,0,0,1,5.42,7.41c.28.45.55.91.82,1.39C2139.34,2092.26,2142.87,2102.44,2139.08,2113.15Z" transform="translate(-260.08 -409.89)"/><path class="cls-38" d="M2136.89,2083.93l-1.38,1.43-56.37,58.35c-20.39,6.27-42.27,10.94-59.23,11.75-1.16-10.73-.68-33.47,20-49.58,12.76-9.92,34-15.36,53.41-18.34,6.65-1,13.08-1.76,18.86-2.28,10.4-.94,18.71-1.22,22.48-1.29C2136.11,2083.93,2136.89,2083.93,2136.89,2083.93Z" transform="translate(-260.08 -409.89)"/><path class="cls-37" d="M2110.13,2045.75c.61,3.48,5.56,70.7,5.56,70.7l39.72-.51,11.38-71.58Z" transform="translate(-260.08 -409.89)"/><path class="cls-19" d="M2163.17,2072.69s13.93,27,17,33.83c-15.54,45.4-121.78,80.73-132.76,67.11,0,0-19.81-30.68,5-55s60.73-35.58,60.73-35.58C2125,2094.19,2156,2091.15,2163.17,2072.69Z" transform="translate(-260.08 -409.89)"/><path class="cls-10" d="M2466.44,1492s20.95,94.76-58.84,120.45c-63.44,20.42-172.48,62.08-172.48,62.08l-69.23,385.6c-2.91,8.2-49,11.25-54.89,4.66,0,0-16.07-424.47,15.83-471.32,49-71.93,115.38-115.89,115.38-115.89C2309.4,1469.9,2407.38,1462.7,2466.44,1492Z" transform="translate(-260.08 -409.89)"/><path class="cls-39" d="M2109.43,2064.89c-.75-17.07-18.12-418.66,16.07-472.24a335.35,335.35,0,0,1,31.8-41.72l2.35,2.09a331.32,331.32,0,0,0-31.49,41.32c-33.67,52.75-15.77,466.24-15.58,470.41Z" transform="translate(-260.08 -409.89)"/><path class="cls-37" d="M2205.26,1139.75c32.81-40.25,57.26-16.3,55.8,28.93s-32,242.31-68.61,228.76S2164.08,1190.27,2205.26,1139.75Z" transform="translate(-260.08 -409.89)"/><path class="cls-40" d="M2229.66,1314.65l-22,153.52c2.15,7.89,14.05,14.57,31.87,19.82,2.82.84,5.78,1.63,8.87,2.39h0c60.73,14.89,172.45,15.78,221-3.57,0,0-3.76-26-19.23-67.7-11.76-31.69-30.28-72.46-59-117.8-1.83-13.46,9.53-37.2,20.89-64.42,18.09-43.35,36.19-95.53,1.08-129.05-57.15-54.6-206.68-39.11-216.5,68.9C2195.08,1246.61,2229.66,1314.65,2229.66,1314.65Z" transform="translate(-260.08 -409.89)"/><path class="cls-41" d="M2231.55,1498.72c1-.17,7.17-3.35,16.85-8.34h0c41.38-21.3,147.45-75.76,196.79-71.35a33.13,33.13,0,0,0,5,.08c-11.76-31.69-30.28-72.46-59-117.8-1.83-13.46,9.53-37.2,20.89-64.42l-64.58-73.31s.23,1.67.63,4.68c3.45,26.42,19.85,156.46,11,177.45-8.11,19.21-92.63,110.72-119.52,142.28C2233.69,1494.86,2230.57,1498.88,2231.55,1498.72Z" transform="translate(-260.08 -409.89)"/><path class="cls-37" d="M2247.38,1116.83c1.89,13,18.62,47.54,18.62,47.54s69.27-43,66.8-60L2321.56,1059l-7.33-29.55-70.57,10.27,2.43,50.48Z" transform="translate(-260.08 -409.89)"/><polygon class="cls-42" points="1986.02 680.26 2035.32 647.26 1983.58 629.78 1986.02 680.26"/><path class="cls-37" d="M2181.54,947.5c-4,63.21,31.79,115.34,79.91,116.44s86.25-49.33,85.16-112.66c-1-59.66-36.87-106.34-80.12-107.33S2185.29,888,2181.54,947.5Z" transform="translate(-260.08 -409.89)"/><path class="cls-36" d="M2240.63,903.1c60.09,77,146.65,46.41,126.7.34,0,0-23.19-63.46-93.31-64.49C2186.34,837.66,2240.63,903.1,2240.63,903.1Z" transform="translate(-260.08 -409.89)"/><path class="cls-43" d="M2257.45,993.74c-2.24,0-4.42-.58-5.66-2.14-3-3.83,5.15-22.56,6.82-26.27a.93.93,0,1,1,1.69.76c-4,8.81-8.78,22.19-7.06,24.36,2,2.53,8.94,1.11,11.44.34a.93.93,0,0,1,.54,1.77A27.7,27.7,0,0,1,2257.45,993.74Z" transform="translate(-260.08 -409.89)"/><path class="cls-43" d="M2244.45,1015.47s26.82,8.19,62.21-10.12C2287.2,1033.42,2261.73,1050.94,2244.45,1015.47Z" transform="translate(-260.08 -409.89)"/><path class="cls-36" d="M2301.34,958.9c-.11,4.66-2.06,8.39-4.37,8.34s-4.09-3.87-4-8.53,2.07-8.39,4.38-8.34S2301.45,954.24,2301.34,958.9Z" transform="translate(-260.08 -409.89)"/><path class="cls-36" d="M2220.83,955.21c-.1,4.66-2.06,8.39-4.37,8.34s-4.09-3.87-4-8.53,2.06-8.39,4.37-8.33S2220.94,950.56,2220.83,955.21Z" transform="translate(-260.08 -409.89)"/><path class="cls-36" d="M2240.24,888.54S2229.57,947.14,2180,951c-33.18,2.6,15.09-97,46.67-95.08C2245.27,857.08,2240.24,888.54,2240.24,888.54Z" transform="translate(-260.08 -409.89)"/><path class="cls-37" d="M2424.4,1131s-25.79-28-67.3,3.15c-34,25.54,23.45,188.32,23.45,188.32l-169.4,160.82,13,16.36s202.73-85,228.54-152.18C2461.52,1304.92,2444.32,1160.67,2424.4,1131Z" transform="translate(-260.08 -409.89)"/><path class="cls-37" d="M2227.81,1338.81l9.2,159-21.87,3.66s-47.31-109.12-45.16-170.75C2171.86,1276.7,2234.38,1289.61,2227.81,1338.81Z" transform="translate(-260.08 -409.89)"/><path class="cls-37" d="M2239.21,1487.91s24,14.35,12.44,24.07-53.12,9.15-41.24-16.73S2239.21,1487.91,2239.21,1487.91Z" transform="translate(-260.08 -409.89)"/><path class="cls-37" d="M2211,1480.57c-1.87-.37-43.53,29.19-31,42s75.36-25.66,62.94-41.34S2211,1480.57,2211,1480.57Z" transform="translate(-260.08 -409.89)"/></g></g></svg>