<svg id="Illustration" xmlns="http://www.w3.org/2000/svg" xmlns:xlink="http://www.w3.org/1999/xlink" viewBox="0 0 2808.5 2800"><defs><style>.cls-1{fill:url(#linear-gradient);}.cls-2,.cls-24{opacity:0.9;}.cls-3{fill:#bdd0fb;}.cls-10,.cls-11,.cls-24,.cls-25,.cls-4,.cls-9{fill:#fff;}.cls-4{opacity:0.6;}.cls-5{fill:#91b3fa;}.cls-6{fill:url(#linear-gradient-2);}.cls-7{fill:url(#linear-gradient-3);}.cls-8{fill:#7d97f4;}.cls-10{opacity:0.8;}.cls-11{opacity:0.78;}.cls-12{fill:url(#linear-gradient-4);}.cls-13{fill:url(#linear-gradient-5);}.cls-14{fill:url(#linear-gradient-6);}.cls-15{fill:url(#linear-gradient-7);}.cls-16{fill:url(#linear-gradient-8);}.cls-17{fill:url(#linear-gradient-9);}.cls-18{fill:url(#linear-gradient-10);}.cls-19{fill:url(#linear-gradient-11);}.cls-20{fill:url(#linear-gradient-12);}.cls-21{fill:url(#linear-gradient-13);}.cls-22{fill:url(#linear-gradient-14);}.cls-23{fill:url(#linear-gradient-15);}.cls-25{opacity:0.5;}.cls-26{fill:url(#linear-gradient-16);}.cls-27{fill:url(#linear-gradient-17);}.cls-28{fill:url(#linear-gradient-18);}.cls-29{fill:url(#linear-gradient-19);}.cls-30{fill:url(#linear-gradient-20);}.cls-31{fill:url(#linear-gradient-21);}.cls-32{fill:url(#linear-gradient-22);}.cls-33{fill:url(#linear-gradient-23);}.cls-34{fill:url(#linear-gradient-24);}.cls-35{fill:url(#linear-gradient-25);}.cls-36{fill:url(#linear-gradient-26);}.cls-37{fill:url(#linear-gradient-27);}.cls-38{fill:url(#linear-gradient-28);}.cls-39{fill:url(#linear-gradient-29);}.cls-40{fill:url(#linear-gradient-30);}.cls-41{fill:url(#linear-gradient-31);}.cls-42{fill:url(#linear-gradient-32);}.cls-43{fill:url(#linear-gradient-33);}.cls-44{fill:url(#linear-gradient-34);}.cls-45{fill:url(#linear-gradient-35);}.cls-46{fill:url(#linear-gradient-36);}</style><linearGradient id="linear-gradient" x1="3612.45" y1="4085.95" x2="1119.96" y2="990.43" gradientUnits="userSpaceOnUse"><stop offset="0" stop-color="#dae3fe"/><stop offset="1" stop-color="#e9effd"/></linearGradient><linearGradient id="linear-gradient-2" x1="911.92" y1="1805.01" x2="2720.07" y2="1805.01" gradientUnits="userSpaceOnUse"><stop offset="0" stop-color="#09005d"/><stop offset="1" stop-color="#1a0f91"/></linearGradient><linearGradient id="linear-gradient-3" x1="781.98" y1="3835.39" x2="1973.71" y2="1370.44" gradientUnits="userSpaceOnUse"><stop offset="0" stop-color="#fe7062"/><stop offset="1" stop-color="#ff928e"/></linearGradient><linearGradient id="linear-gradient-4" x1="987.27" y1="707.07" x2="801.36" y2="1432.83" xlink:href="#linear-gradient-3"/><linearGradient id="linear-gradient-5" x1="1340.06" y1="699.6" x2="1916.85" y2="1799.33" gradientTransform="matrix(1, 0.04, -0.04, 1, -2.1, -163.81)" xlink:href="#linear-gradient-2"/><linearGradient id="linear-gradient-6" x1="1564.7" y1="992.01" x2="2374.3" y2="2158.22" gradientTransform="matrix(1, 0.04, -0.04, 1, -2.1, -163.81)" gradientUnits="userSpaceOnUse"><stop offset="0" stop-color="#4f52ff"/><stop offset="1" stop-color="#4042e2"/></linearGradient><linearGradient id="linear-gradient-7" x1="1820.89" y1="1915.76" x2="2798.73" y2="459.19" gradientTransform="matrix(1, 0, 0, 1, 0, 0)" xlink:href="#linear-gradient-6"/><linearGradient id="linear-gradient-8" x1="1495.08" y1="1471.81" x2="2257.38" y2="1471.81" gradientTransform="matrix(1, 0.04, -0.04, 1, -2.1, -163.81)" xlink:href="#linear-gradient-2"/><linearGradient id="linear-gradient-9" x1="1439.86" y1="970.9" x2="1407.28" y2="1264.14" xlink:href="#linear-gradient-6"/><linearGradient id="linear-gradient-10" x1="1428.12" y1="1229.66" x2="1523.04" y2="1229.66" gradientTransform="matrix(1, 0.04, -0.04, 1, -2.1, -163.81)" xlink:href="#linear-gradient-2"/><linearGradient id="linear-gradient-11" x1="1471.18" y1="979.88" x2="1440.12" y2="1259.41" xlink:href="#linear-gradient-6"/><linearGradient id="linear-gradient-12" x1="2353.62" y1="1072.42" x2="2321.04" y2="1365.66" xlink:href="#linear-gradient-6"/><linearGradient id="linear-gradient-13" x1="2258.24" y1="1229.65" x2="2353.16" y2="1229.65" gradientTransform="matrix(1, 0.04, -0.04, 1, -2.1, -163.81)" xlink:href="#linear-gradient-2"/><linearGradient id="linear-gradient-14" x1="2335.62" y1="1071" x2="2304.24" y2="1353.38" xlink:href="#linear-gradient-6"/><linearGradient id="linear-gradient-15" x1="1704.26" y1="1131.09" x2="3061.54" y2="2358.49" xlink:href="#linear-gradient-6"/><linearGradient id="linear-gradient-16" x1="3944" y1="31.85" x2="3382.44" y2="702.87" gradientTransform="matrix(-0.61, 0.81, 0.8, 0.6, 3077.55, -501.53)" xlink:href="#linear-gradient-3"/><linearGradient id="linear-gradient-17" x1="3701.46" y1="269.89" x2="3775" y2="269.89" gradientTransform="matrix(-0.61, 0.81, 0.8, 0.6, 3077.55, -501.53)" xlink:href="#linear-gradient-3"/><linearGradient id="linear-gradient-18" x1="3681.23" y1="240.65" x2="3801.9" y2="240.65" gradientTransform="matrix(-0.61, 0.81, 0.8, 0.6, 3077.55, -501.53)" xlink:href="#linear-gradient-3"/><linearGradient id="linear-gradient-19" x1="3654.98" y1="209.25" x2="3821.47" y2="209.25" gradientTransform="matrix(-0.61, 0.81, 0.8, 0.6, 3077.55, -501.53)" xlink:href="#linear-gradient-3"/><linearGradient id="linear-gradient-20" x1="3644.01" y1="180.17" x2="3827.76" y2="180.17" gradientTransform="matrix(-0.61, 0.81, 0.8, 0.6, 3077.55, -501.53)" xlink:href="#linear-gradient-3"/><linearGradient id="linear-gradient-21" x1="3641.33" y1="149.53" x2="3822.95" y2="149.53" gradientTransform="matrix(-0.61, 0.81, 0.8, 0.6, 3077.55, -501.53)" xlink:href="#linear-gradient-3"/><linearGradient id="linear-gradient-22" x1="3650.25" y1="118.21" x2="3809.15" y2="118.21" gradientTransform="matrix(-0.61, 0.81, 0.8, 0.6, 3077.55, -501.53)" xlink:href="#linear-gradient-3"/><linearGradient id="linear-gradient-23" x1="3669.3" y1="90.62" x2="3788.15" y2="90.62" gradientTransform="matrix(-0.61, 0.81, 0.8, 0.6, 3077.55, -501.53)" xlink:href="#linear-gradient-3"/><linearGradient id="linear-gradient-24" x1="3655.99" y1="297.41" x2="4020.64" y2="596.59" gradientTransform="matrix(-0.61, 0.81, 0.8, 0.6, 3077.55, -501.53)" xlink:href="#linear-gradient-3"/><linearGradient id="linear-gradient-25" x1="3643.98" y1="312.05" x2="4008.63" y2="611.23" gradientTransform="matrix(-0.61, 0.81, 0.8, 0.6, 3077.55, -501.53)" xlink:href="#linear-gradient-3"/><linearGradient id="linear-gradient-26" x1="3631.36" y1="327.43" x2="3996.02" y2="626.61" gradientTransform="matrix(-0.61, 0.81, 0.8, 0.6, 3077.55, -501.53)" xlink:href="#linear-gradient-3"/><linearGradient id="linear-gradient-27" x1="-1276.22" y1="4203.53" x2="-888.85" y2="4521.35" gradientTransform="matrix(-0.65, 0.76, 0.76, 0.65, -2851.83, 839.89)" xlink:href="#linear-gradient-3"/><linearGradient id="linear-gradient-28" x1="3600.44" y1="365.13" x2="3965.1" y2="664.31" gradientTransform="matrix(-0.61, 0.81, 0.8, 0.6, 3077.55, -501.53)" xlink:href="#linear-gradient-3"/><linearGradient id="linear-gradient-29" x1="3582.36" y1="387.17" x2="3947.02" y2="686.35" gradientTransform="matrix(-0.61, 0.81, 0.8, 0.6, 3077.55, -501.53)" xlink:href="#linear-gradient-3"/><linearGradient id="linear-gradient-30" x1="1049.91" y1="2658.54" x2="1099.7" y2="2357.52" xlink:href="#linear-gradient-3"/><linearGradient id="linear-gradient-31" x1="813.13" y1="1851.55" x2="917.29" y2="1851.55" gradientUnits="userSpaceOnUse"><stop offset="0" stop-color="#e1473d"/><stop offset="1" stop-color="#e9605a"/></linearGradient><linearGradient id="linear-gradient-32" x1="815.74" y1="1997.85" x2="887.24" y2="1766.65" xlink:href="#linear-gradient-3"/><linearGradient id="linear-gradient-33" x1="727.3" y1="1711.63" x2="838" y2="1711.63" xlink:href="#linear-gradient-31"/><linearGradient id="linear-gradient-34" x1="634.3" y1="1786" x2="858.34" y2="1569.1" xlink:href="#linear-gradient-3"/><linearGradient id="linear-gradient-35" x1="623.4" y1="1924.42" x2="746.7" y2="1924.42" xlink:href="#linear-gradient-31"/><linearGradient id="linear-gradient-36" x1="544.18" y1="1950.16" x2="787.29" y2="1795.23" xlink:href="#linear-gradient-3"/></defs><path class="cls-1" d="M2931.22,2862.09c-57.5,60.1-111.9,98.86-154.88,129.49-505.25,360-1103.1,255-1230.16,229.41-187.62-37.84-550.3-111-812.51-417.16-396.7-463.23-334.93-1193-27.22-1674.77,56.29-88.12,353.6-577.21,957.88-655.65C2030,426,2456.33,521.68,2765,778.5,3413.06,1317.58,3366.92,2406.62,2931.22,2862.09Z" transform="translate(-450.75 -455)"/><g class="cls-2"><path class="cls-3" d="M3045.53,563.71c73.94,270.72,439.85,1863.73-993.32,2475.61,0,0-510.87-986.72,953.46-2486C3018.48,540.19,3040.7,546,3045.53,563.71Z" transform="translate(-450.75 -455)"/><path class="cls-4" d="M2941.9,826c-3.81,47.15-9,94.06-14.56,141s-12,93.69-18.84,140.4q-20.61,140.16-48.06,279.2c-36.68,185.28-82.16,369-139.55,549.05-57.56,179.92-126.83,356.62-214.74,524.26-21.83,42-45.27,83.09-69.74,123.6-6.22,10.06-12.19,20.28-18.62,30.22l-19.15,29.89c-13.18,19.66-26.21,39.43-40.1,58.62-54.64,77.35-116,150.09-184.16,216.15a6.79,6.79,0,1,1-9.45-9.75h0l0,0c67.63-65.13,128.77-137,183.29-213.66,13.86-19,26.86-38.6,40-58.09l19.14-29.64c6.42-9.86,12.4-20,18.62-30,24.47-40.19,47.92-81,69.8-122.73,88.07-166.55,157.77-342.48,215.82-521.79,57.88-179.47,103.92-362.7,141.2-547.6q27.9-138.69,49-278.68,10.56-70,19.29-140.17c5.75-46.79,11.06-93.7,15-140.63v0a2.88,2.88,0,0,1,5.74.47Z" transform="translate(-450.75 -455)"/></g><g class="cls-2"><path class="cls-5" d="M3222.72,1729.23c34.76,155.93,200,1071.62-631.48,1381,0,0-263.93-574.84,609.1-1388A13.52,13.52,0,0,1,3222.72,1729.23Z" transform="translate(-450.75 -455)"/><path class="cls-4" d="M3186.45,1892.57c-11.53,51.46-25.06,102.31-39.37,153s-30,101-46.53,150.93-34.33,99.57-53.21,148.73-38.75,98-60.36,146c-42.88,96.23-91.17,190.25-147.31,279.66l-5.19,8.42-5.44,8.27-10.9,16.52-10.9,16.52c-3.63,5.51-7.59,10.81-11.36,16.22-7.69,10.73-15.15,21.63-23,32.23l-24.08,31.48c-32.85,41.39-68.05,81-106.2,117.79a6.79,6.79,0,0,1-9.43-9.77l0,0,.07-.07c37.83-36,72.86-75,105.65-115.75l24.05-31c7.88-10.46,15.34-21.23,23-31.82,3.77-5.35,7.73-10.57,11.36-16l10.93-16.34,10.92-16.33,5.45-8.18,5.22-8.34c56.31-88.46,105-181.76,148.31-277.39,21.82-47.75,41.85-96.33,61.07-145.21s37.19-98.27,54-148,32.68-99.88,47.37-150.33,28.44-101.23,40.22-152.35v0a2.88,2.88,0,0,1,5.61,1.27Z" transform="translate(-450.75 -455)"/></g><path class="cls-6" d="M945.06,592.62c-10.67,430.19-45.25,1914.07-28.74,2439.92a105.57,105.57,0,0,0,102.11,102.24c275.53,9,1068.13,31.87,1518.79,13a177.77,177.77,0,0,0,170.46-173.89c9.37-451.54,30-1721.55-19.08-2303.34a145.08,145.08,0,0,0-130.21-132.18c-300-30-1097-103.39-1486.35-78.13A136,136,0,0,0,945.06,592.62Z" transform="translate(-450.75 -455)"/><path class="cls-7" d="M1057,726.29c-15,352.32-62.51,1524.41-47.45,1957.83A122.62,122.62,0,0,0,1125,2802.39c260.55,15.25,928.81,48.87,1311,18.27a137.84,137.84,0,0,0,126.53-130.09c19.36-359.45,75-1450.83,60.52-1879.39a135.49,135.49,0,0,0-123.39-130.32c-281.86-25.3-1005.79-85.52-1330.53-67.8A118.49,118.49,0,0,0,1057,726.29Z" transform="translate(-450.75 -455)"/><path class="cls-8" d="M1626,535.37h0a24.77,24.77,0,0,0,23.46,24.78c65.08,3.41,248.4,13.05,330.33,17.8a24.78,24.78,0,0,0,25.77-29.47l-.52-2.71a24.8,24.8,0,0,0-22.08-20c-55.38-5.07-222.48-19.14-333.2-15.19A24.74,24.74,0,0,0,1626,535.37Z" transform="translate(-450.75 -455)"/><ellipse class="cls-9" cx="915.78" cy="992.08" rx="302.31" ry="285.46" transform="translate(-623.89 1335.29) rotate(-83.53)"/><ellipse class="cls-8" cx="915.78" cy="992.08" rx="292.25" ry="275.97" transform="translate(-623.88 1335.3) rotate(-83.53)"/><path class="cls-10" d="M1170.18,1009.91H1170a3.39,3.39,0,0,1-3.17-3.6,284.77,284.77,0,0,0,.14-33.69,3.39,3.39,0,0,1,3.2-3.58,3.43,3.43,0,0,1,3.58,3.21,291.87,291.87,0,0,1-.14,34.49A3.4,3.4,0,0,1,1170.18,1009.91Z" transform="translate(-450.75 -455)"/><path class="cls-10" d="M1155.57,900.48a3.4,3.4,0,0,1-3.21-2.29c-32.6-94.6-111.76-160.05-206.57-170.8a239.72,239.72,0,0,0-45.52-.81,3.39,3.39,0,0,1-.52-6.77,246.56,246.56,0,0,1,46.8.83C1044,731.69,1125.32,798.87,1158.78,896a3.39,3.39,0,0,1-2.1,4.31A3.32,3.32,0,0,1,1155.57,900.48Z" transform="translate(-450.75 -455)"/><ellipse class="cls-11" cx="909.09" cy="997.73" rx="247.36" ry="233.58" transform="translate(-635.44 1333.65) rotate(-83.53)"/><path class="cls-12" d="M994.47,866.93c-30.12,0-57,15.8-74.34,40.41-17.4-24.61-44.22-40.41-74.35-40.41-52.44,0-94.95,47.83-94.95,106.83,0,52.64,91,149.11,150.12,187a32.65,32.65,0,0,0,37.47-1.59c50.85-39,151-133.53,151-185.45C1089.43,914.76,1046.91,866.93,994.47,866.93Z" transform="translate(-450.75 -455)"/><path class="cls-9" d="M926.45,1065.31h-.4a10.11,10.11,0,0,1-8.81-5.92L873,962.14,830.3,1009a10.12,10.12,0,0,1-7.47,3.29H714.16a10.11,10.11,0,0,1,0-20.21H818.37l50.07-54.84a10.11,10.11,0,0,1,16.66,2.64l42.22,92.88,43.35-78.43a10.11,10.11,0,0,1,18.16,1l17.61,41.83h94.38a10.11,10.11,0,1,1,0,20.22H999.73a10.09,10.09,0,0,1-9.31-6.19L978.28,982.3l-43,77.79A10.1,10.1,0,0,1,926.45,1065.31Z" transform="translate(-450.75 -455)"/><path class="cls-13" d="M2150.18,1727.66,1463,1698.37a55.84,55.84,0,0,1-53.25-58h0a55.84,55.84,0,0,1,58-53.24l687.16,29.29a55.83,55.83,0,0,1,53.24,58h0A55.82,55.82,0,0,1,2150.18,1727.66Z" transform="translate(-450.75 -455)"/><path class="cls-14" d="M2294,1659.5l-961-41a26.34,26.34,0,0,1-25.11-27.35l19.82-464.83a48,48,0,0,1,49.83-45.75l917.85,39.12a48,48,0,0,1,45.76,49.83l-19.82,464.83A26.32,26.32,0,0,1,2294,1659.5Z" transform="translate(-450.75 -455)"/><path class="cls-15" d="M1430.17,1652.4,2194.23,1685c68.58,2.92,122.3,61.42,119.37,130l-4.27,100.25c-11.88,278.69-260.37,749.12-539.06,737.24h0C1491.57,2640.58,1284,2150.71,1295.89,1872l4.28-100.25C1303.09,1703.19,1361.59,1649.47,1430.17,1652.4Z" transform="translate(-450.75 -455)"/><path class="cls-16" d="M2189.65,1424.06a73,73,0,0,1-69.09,69.88c-203.47,10.44-413.72,2-629.31-27a73.11,73.11,0,0,1-63.21-75.56l1.69-39.53a73.05,73.05,0,0,1,68.8-69.86c211.21-11.94,421.77-6.63,631.31,25.89a73,73,0,0,1,61.55,75.31Z" transform="translate(-450.75 -455)"/><path class="cls-8" d="M1650.42,1381.26a46.31,46.31,0,1,1-44.29-48.23A46.31,46.31,0,0,1,1650.42,1381.26Z" transform="translate(-450.75 -455)"/><circle class="cls-8" cx="2015.21" cy="1396.81" r="46.3" transform="translate(-758.87 1725.57) rotate(-53.37)"/><path class="cls-8" d="M1602.81,1443.69a2.71,2.71,0,0,1,2.64-2.81h0a2.73,2.73,0,0,1,2.81,2.69h0a2.72,2.72,0,0,1-2.69,2.76h-.15A2.69,2.69,0,0,1,1602.81,1443.69Zm-14,.94a2.8,2.8,0,0,1-2-3.31h0a2.76,2.76,0,0,1,3.31-2h0a2.77,2.77,0,0,1,2,3.31h0a2.77,2.77,0,0,1-2.77,2.11h0C1589.19,1444.69,1589.05,1444.64,1588.85,1444.63Zm30-2.64a2.67,2.67,0,0,1,1.92-3.33h0a2.66,2.66,0,0,1,3.34,1.87h0a2.74,2.74,0,0,1-1.88,3.39h0a2.49,2.49,0,0,1-.84.06h0A2.68,2.68,0,0,1,1618.83,1442Zm-45.73-3.23a2.7,2.7,0,0,1-1.13-3.67h0a2.68,2.68,0,0,1,3.67-1.18h0a2.7,2.7,0,0,1,1.13,3.67h0a2.61,2.61,0,0,1-2.54,1.47h0A2.5,2.5,0,0,1,1573.1,1438.76Zm60.87-2.36a2.75,2.75,0,0,1,1-3.77h0a2.79,2.79,0,0,1,3.73,1h0a2.8,2.8,0,0,1-1,3.77h0a2.66,2.66,0,0,1-1.5.33h0A2.7,2.7,0,0,1,1634,1436.4Zm-74.67-7.25a2.73,2.73,0,0,1-.18-3.87h0a2.79,2.79,0,0,1,3.87-.18h0a2.78,2.78,0,0,1,.18,3.87h0a2.81,2.81,0,0,1-2.17.9h0A2.6,2.6,0,0,1,1559.3,1429.15Zm87.89-1.94a2.79,2.79,0,0,1,.07-3.91h0a2.73,2.73,0,0,1,3.86.06h0a2.73,2.73,0,0,1-.07,3.86h0a2.59,2.59,0,0,1-2,.76h0A3,3,0,0,1,1647.19,1427.21Zm-98.89-10.76a2.75,2.75,0,0,1,.75-3.78h0a2.77,2.77,0,0,1,3.84.76h0a2.72,2.72,0,0,1-.81,3.78h0a2.59,2.59,0,0,1-1.6.47h0A2.74,2.74,0,0,1,1548.3,1416.45Zm109.47-1.47a2.77,2.77,0,0,1-.94-3.76h0a2.77,2.77,0,0,1,3.76-.92h0a2.72,2.72,0,0,1,.93,3.75h0a2.7,2.7,0,0,1-2.48,1.33h0A2.56,2.56,0,0,1,1657.77,1415Zm-117-13.56h0a2.77,2.77,0,0,1,1.68-3.49h0a2.8,2.8,0,0,1,3.5,1.68h0a2.79,2.79,0,0,1-1.69,3.5h0a3.81,3.81,0,0,1-1,.15h0A2.75,2.75,0,0,1,1540.82,1401.42Zm124.15-.89a2.68,2.68,0,0,1-1.84-3.4h0a2.81,2.81,0,0,1,3.4-1.84h0a2.73,2.73,0,0,1,1.84,3.4h0v0h0a2.76,2.76,0,0,1-2.75,1.91h0A3.44,3.44,0,0,1,1665,1400.53ZM1537.31,1385a2.76,2.76,0,0,1,2.5-3h0a2.76,2.76,0,0,1,3,2.5h0a2.77,2.77,0,0,1-2.51,3h-.34A2.77,2.77,0,0,1,1537.31,1385Zm128.4-3v-.1h0a1,1,0,0,0,0-.2h0a2.72,2.72,0,0,1,2.84-2.6h0a2.74,2.74,0,0,1,2.6,2.83h0v.15h0a.76.76,0,0,0,0,.15h0a2.71,2.71,0,0,1-2.83,2.6h0A2.74,2.74,0,0,1,1665.71,1381.94Zm0-.3h0v0h0Zm-125.45-10.3a2.74,2.74,0,0,1-2.29-3.12h0a2.73,2.73,0,0,1,3.16-2.24h0a2.68,2.68,0,0,1,2.24,3.12h0a2.72,2.72,0,0,1-2.82,2.3h0C1540.46,1371.4,1540.37,1371.34,1540.27,1371.34Zm124.13-5.06a2.7,2.7,0,0,1,2.07-3.23h0a2.76,2.76,0,0,1,3.28,2.07h0a2.79,2.79,0,0,1-2.12,3.28h0a3.28,3.28,0,0,1-.7,0h0A2.68,2.68,0,0,1,1664.4,1366.28Zm-120.2-10.57a2.77,2.77,0,0,1-1.38-3.63h0a2.77,2.77,0,0,1,3.63-1.38h0a2.77,2.77,0,0,1,1.38,3.63h0a2.85,2.85,0,0,1-2.65,1.62h0A4,4,0,0,1,1544.2,1355.71Zm115.07-4h0a2.73,2.73,0,0,1,1.2-3.67h0a2.69,2.69,0,0,1,3.66,1.2h0a2.68,2.68,0,0,1-1.2,3.66h0a2.63,2.63,0,0,1-1.34.29h0A2.73,2.73,0,0,1,1659.27,1351.75ZM1552,1341.58a2.79,2.79,0,0,1-.48-3.89h0a2.76,2.76,0,0,1,3.83-.43h0a2.72,2.72,0,0,1,.48,3.84h0a2.76,2.76,0,0,1-2.27,1h0A2.63,2.63,0,0,1,1552,1341.58Zm98.67-2.68h0a2.73,2.73,0,0,1,.26-3.85h0a2.79,2.79,0,0,1,3.9.26h0a2.75,2.75,0,0,1-.26,3.86h0a2.89,2.89,0,0,1-1.91.66h0A2.68,2.68,0,0,1,1650.66,1338.9Zm-87.67-9.14a2.79,2.79,0,0,1,.51-3.84h0a2.78,2.78,0,0,1,3.84.51h0a2.79,2.79,0,0,1-.51,3.85h0a2.71,2.71,0,0,1-1.81.56h0A2.76,2.76,0,0,1,1563,1329.76Zm76.17-1.16h0a2.73,2.73,0,0,1-.68-3.79h0a2.74,2.74,0,0,1,3.79-.73h0a2.79,2.79,0,0,1,.73,3.85h0a2.83,2.83,0,0,1-2.37,1.13h0A2.76,2.76,0,0,1,1639.16,1328.6Zm-62.58-7.52a2.77,2.77,0,0,1,1.45-3.6h0a2.75,2.75,0,0,1,3.6,1.49h0a2.71,2.71,0,0,1-1.49,3.55h0a2.33,2.33,0,0,1-1.15.25h0A2.72,2.72,0,0,1,1576.58,1321.08Zm48.92.4h0a2.8,2.8,0,0,1-1.64-3.53h0a2.69,2.69,0,0,1,3.54-1.58h-.05a2.66,2.66,0,0,1,1.64,3.49h0a2.7,2.7,0,0,1-2.66,1.82h0A2.24,2.24,0,0,1,1625.5,1321.48Zm-33.6-5.44a2.68,2.68,0,0,1,2.31-3.07h0a2.73,2.73,0,0,1,3.13,2.26h0a2.79,2.79,0,0,1-2.32,3.12h0a2,2,0,0,1-.54,0h0A2.75,2.75,0,0,1,1591.9,1316Zm18.54,2h0a2.77,2.77,0,0,1-2.45-3h0a2.8,2.8,0,0,1,3-2.44h0a2.8,2.8,0,0,1,2.45,3h0a2.8,2.8,0,0,1-2.83,2.46h-.2Z" transform="translate(-450.75 -455)"/><path class="cls-8" d="M2013.64,1461.2a2.71,2.71,0,0,1,2.64-2.81h0a2.74,2.74,0,0,1,2.81,2.7h0a2.72,2.72,0,0,1-2.69,2.75h-.15A2.66,2.66,0,0,1,2013.64,1461.2Zm-14,.94a2.79,2.79,0,0,1-2-3.31h0a2.75,2.75,0,0,1,3.31-2h0a2.76,2.76,0,0,1,2,3.3h0a2.75,2.75,0,0,1-2.77,2.11h0C2000,1462.2,1999.88,1462.15,1999.68,1462.14Zm30-2.63a2.68,2.68,0,0,1,1.92-3.34h0a2.66,2.66,0,0,1,3.34,1.88h0a2.73,2.73,0,0,1-1.88,3.38h0a2.55,2.55,0,0,1-.85.07h0A2.71,2.71,0,0,1,2029.66,1459.51Zm-45.73-3.24a2.69,2.69,0,0,1-1.13-3.66h0a2.67,2.67,0,0,1,3.67-1.18h0a2.69,2.69,0,0,1,1.13,3.66h0a2.61,2.61,0,0,1-2.54,1.47h0A2.5,2.5,0,0,1,1983.93,1456.27Zm60.87-2.36a2.75,2.75,0,0,1,1-3.77h0a2.79,2.79,0,0,1,3.73,1h0a2.79,2.79,0,0,1-1,3.77h0a2.58,2.58,0,0,1-1.5.33h0A2.67,2.67,0,0,1,2044.8,1453.91Zm-74.67-7.24a2.73,2.73,0,0,1-.18-3.87h0a2.78,2.78,0,0,1,3.87-.19h0a2.8,2.8,0,0,1,.18,3.88h0a2.81,2.81,0,0,1-2.17.89h0A2.59,2.59,0,0,1,1970.13,1446.67Zm87.89-2a2.79,2.79,0,0,1,.07-3.91h0a2.74,2.74,0,0,1,3.86.06h0a2.73,2.73,0,0,1-.07,3.86h0a2.59,2.59,0,0,1-2,.76h0A3,3,0,0,1,2058,1444.72ZM1959.13,1434a2.76,2.76,0,0,1,.75-3.79h0a2.78,2.78,0,0,1,3.84.76h0a2.72,2.72,0,0,1-.81,3.78h0a2.66,2.66,0,0,1-1.6.48h0A2.79,2.79,0,0,1,1959.13,1434Zm109.46-1.48a2.76,2.76,0,0,1-.93-3.75h0a2.77,2.77,0,0,1,3.76-.93h0a2.73,2.73,0,0,1,.93,3.75h0a2.71,2.71,0,0,1-2.49,1.33h0A2.43,2.43,0,0,1,2068.59,1432.49Zm-116.94-13.55h0a2.78,2.78,0,0,1,1.68-3.5h0a2.81,2.81,0,0,1,3.5,1.69h0a2.78,2.78,0,0,1-1.69,3.49h0a3.82,3.82,0,0,1-1.05.16h0A2.78,2.78,0,0,1,1951.65,1418.94Zm124.15-.9a2.68,2.68,0,0,1-1.84-3.4h0a2.79,2.79,0,0,1,3.4-1.83h0a2.71,2.71,0,0,1,1.83,3.39h0v0h0a2.74,2.74,0,0,1-2.75,1.91h0A2.34,2.34,0,0,1,2075.8,1418Zm-127.66-15.55a2.76,2.76,0,0,1,2.5-3h0a2.77,2.77,0,0,1,3,2.5h0a2.78,2.78,0,0,1-2.51,3h0l-.34,0h0A2.75,2.75,0,0,1,1948.14,1402.49Zm128.4-3v-.1h0a1,1,0,0,0,0-.2h0a2.72,2.72,0,0,1,2.84-2.6h0a2.74,2.74,0,0,1,2.6,2.83h0v.15h0v.15h0a2.71,2.71,0,0,1-2.84,2.6h0A2.74,2.74,0,0,1,2076.54,1399.45Zm0-.3h0v0h0Zm-125.45-10.3a2.74,2.74,0,0,1-2.29-3.12h0a2.73,2.73,0,0,1,3.16-2.24h0a2.69,2.69,0,0,1,2.24,3.12h0a2.72,2.72,0,0,1-2.82,2.3h0C1951.29,1388.91,1951.2,1388.86,1951.1,1388.85Zm124.13-5.06a2.7,2.7,0,0,1,2.07-3.23h0a2.76,2.76,0,0,1,3.28,2.07h0a2.79,2.79,0,0,1-2.13,3.28h0a3.17,3.17,0,0,1-.69,0h0A2.68,2.68,0,0,1,2075.23,1383.79ZM1955,1373.22a2.76,2.76,0,0,1-1.38-3.62h0a2.77,2.77,0,0,1,3.63-1.39h0a2.77,2.77,0,0,1,1.38,3.63h0a2.85,2.85,0,0,1-2.65,1.62h0A3.58,3.58,0,0,1,1955,1373.22Zm115.07-4h0a2.72,2.72,0,0,1,1.2-3.66h0a2.69,2.69,0,0,1,3.66,1.19h0a2.7,2.7,0,0,1-1.2,3.67h0a2.85,2.85,0,0,1-1.34.29h0A2.74,2.74,0,0,1,2070.1,1369.26Zm-107.28-10.17a2.77,2.77,0,0,1-.48-3.88h0a2.75,2.75,0,0,1,3.83-.43h0a2.71,2.71,0,0,1,.48,3.83h0a2.74,2.74,0,0,1-2.27,1h0A2.54,2.54,0,0,1,1962.82,1359.09Zm98.67-2.68h0a2.73,2.73,0,0,1,.26-3.85h0a2.78,2.78,0,0,1,3.9.27h0a2.73,2.73,0,0,1-.26,3.85h0a2.84,2.84,0,0,1-1.91.66h0A2.68,2.68,0,0,1,2061.49,1356.41Zm-87.67-9.13a2.79,2.79,0,0,1,.51-3.84h0a2.78,2.78,0,0,1,3.84.51h0a2.78,2.78,0,0,1-.51,3.84h0a2.71,2.71,0,0,1-1.81.56h0A2.78,2.78,0,0,1,1973.82,1347.28Zm76.17-1.16h0a2.74,2.74,0,0,1-.68-3.8h0a2.73,2.73,0,0,1,3.79-.72h0a2.78,2.78,0,0,1,.73,3.84h0a2.84,2.84,0,0,1-2.37,1.14h0A2.76,2.76,0,0,1,2050,1346.12Zm-62.58-7.52a2.78,2.78,0,0,1,1.44-3.61h0a2.76,2.76,0,0,1,3.61,1.49h0A2.71,2.71,0,0,1,1991,1340h0a2.22,2.22,0,0,1-1.15.25h0A2.72,2.72,0,0,1,1987.41,1338.6Zm48.92.4h0a2.82,2.82,0,0,1-1.64-3.54h0a2.7,2.7,0,0,1,3.54-1.58h0a2.65,2.65,0,0,1,1.64,3.48h0a2.7,2.7,0,0,1-2.66,1.82h0A2.24,2.24,0,0,1,2036.33,1339Zm-33.6-5.45a2.69,2.69,0,0,1,2.31-3.07h0a2.73,2.73,0,0,1,3.13,2.26h0a2.8,2.8,0,0,1-2.32,3.13h0a2,2,0,0,1-.54,0h0A2.74,2.74,0,0,1,2002.73,1333.55Zm18.54,2h0a2.77,2.77,0,0,1-2.45-3h0a2.8,2.8,0,0,1,3-2.45h0a2.8,2.8,0,0,1,2.45,3h0a2.79,2.79,0,0,1-2.83,2.45h-.2Z" transform="translate(-450.75 -455)"/><path class="cls-17" d="M1404.55,973.76A25.7,25.7,0,1,1,1380,947,25.7,25.7,0,0,1,1404.55,973.76Z" transform="translate(-450.75 -455)"/><path class="cls-18" d="M1369.83,1184.8s61,10.46,97.92-68.15l-14.87-34.29a22.84,22.84,0,0,0-30.29-11.76l-35.94,16.1a22.85,22.85,0,0,0-13.48,19.87Z" transform="translate(-450.75 -455)"/><path class="cls-19" d="M1383.46,984.75a1.43,1.43,0,0,0-2.75.71L1397,1099a7.77,7.77,0,0,0,11.73,5.55l6.71-4.08a13.55,13.55,0,0,0,5.64-16.38Z" transform="translate(-450.75 -455)"/><path class="cls-20" d="M2277.41,1011a25.7,25.7,0,1,0,26.77-24.58A25.7,25.7,0,0,0,2277.41,1011Z" transform="translate(-450.75 -455)"/><path class="cls-21" d="M2294,1224.19s-61.64,5.24-91.76-76.23l17.73-32.9a22.85,22.85,0,0,1,31.18-9.14l34.44,19.1a22.84,22.84,0,0,1,11.75,21Z" transform="translate(-450.75 -455)"/><path class="cls-22" d="M2300.16,1024.65l-25.81,111.29a8.11,8.11,0,0,1-12.68,4.72l-5.94-4.34a13.54,13.54,0,0,1-4.22-16.8l46-95.81A1.42,1.42,0,0,1,2300.16,1024.65Z" transform="translate(-450.75 -455)"/><path class="cls-23" d="M1543.88,1219a27.22,27.22,0,0,1-.06-54.38c198.38-9.12,379-2,552.25,21.8a27.21,27.21,0,1,1-7.4,53.92c-169.91-23.33-347.31-30.31-542.35-21.35C1545.5,1219.07,1544.68,1219.07,1543.88,1219Z" transform="translate(-450.75 -455)"/><path class="cls-5" d="M1808.44,1510.09c-109.88-4.68-220.4-14.85-330.84-30.46-40.49-5.73-69.62-43-67.76-86.64l1.88-44c1.85-43.33,33.76-77.94,74.24-80.51,238.73-15.14,453.85-6.34,657.65,26.91,39.43,6.44,67.8,43.56,66,86.35l-1.94,45.57c-1.85,43.55-33.9,78.17-74.55,80.52A3232.85,3232.85,0,0,1,1808.44,1510.09Zm24.13-241c-110.42-4.7-225.31-3.18-346.29,4.49-37.85,2.41-67.71,34.91-69.44,75.61l-1.88,44.06c-1.75,41,25.49,76,63.36,81.35,219.79,31.08,440,40.54,654.48,28.11,38-2.2,68-34.71,69.72-75.63l1.95-45.56c1.71-40.21-24.81-75.07-61.69-81.09A2613,2613,0,0,0,1832.57,1269.05Z" transform="translate(-450.75 -455)"/><ellipse class="cls-24" cx="1777.7" cy="2023.94" rx="189.33" ry="196.53" transform="translate(-941.03 3022.5) rotate(-81.36)"/><path class="cls-5" d="M1899.81,1943.32l-60.14,1.49-1.37-54.92c-.35-14.29-13.33-25.56-29-25.18l-84.34,2.1c-15.65.39-28,12.29-27.7,26.58l1.36,54.92-60.14,1.49c-15.65.39-28,12.29-27.7,26.59l1.91,77c.36,14.29,13.33,25.56,29,25.17l60.14-1.49,1.36,54.92c.36,14.29,13.34,25.56,29,25.17l84.34-2.09c15.65-.39,28-12.29,27.7-26.58l-1.37-54.92,60.15-1.49c15.65-.39,28-12.29,27.7-26.59l-1.91-77C1928.44,1954.2,1915.46,1942.93,1899.81,1943.32Z" transform="translate(-450.75 -455)"/><path class="cls-8" d="M1731.81,2141.89c-6.4.16-11.73-4.46-11.87-10.31l-1.74-70.2-76.88,1.91c-6.4.16-11.73-4.47-11.87-10.31l-1.91-77c-.15-5.84,4.94-10.73,11.34-10.89l76.88-1.9L1714,1893c-.15-5.85,4.94-10.73,11.34-10.89l84.34-2.09c6.4-.16,11.72,4.46,11.87,10.31l1.74,70.2,76.88-1.91c6.4-.16,11.72,4.46,11.87,10.31l1.91,77c.15,5.84-4.94,10.73-11.34,10.88l-76.88,1.91,1.74,70.2c.15,5.85-4.94,10.73-11.34,10.89Z" transform="translate(-450.75 -455)"/><path class="cls-8" d="M3190.46,1088.62h-784.2V774.25a35.32,35.32,0,0,1,35.32-35.32l745.48-12.62a40.92,40.92,0,0,1,41.61,40.91v283.19A38.21,38.21,0,0,1,3190.46,1088.62Z" transform="translate(-450.75 -455)"/><path class="cls-9" d="M2440.25,986.28a1.7,1.7,0,0,1-1.7-1.69V912.4a1.7,1.7,0,0,1,3.4,0v72.19A1.7,1.7,0,0,1,2440.25,986.28Z" transform="translate(-450.75 -455)"/><path class="cls-9" d="M3159.77,1057.17h-90.5a1.7,1.7,0,1,1,0-3.39h90.5c18.39,0,33.35-13.24,33.35-29.51V961a1.7,1.7,0,0,1,3.4,0v63.24C3196.52,1042.41,3180,1057.17,3159.77,1057.17Z" transform="translate(-450.75 -455)"/><path class="cls-9" d="M3194.82,939.1a1.7,1.7,0,0,1-1.7-1.7V829a1.7,1.7,0,0,1,3.4,0V937.4A1.7,1.7,0,0,1,3194.82,939.1Z" transform="translate(-450.75 -455)"/><path class="cls-9" d="M2668.27,768.63a1.7,1.7,0,0,1,0-3.4l176.14-2.65h0a1.7,1.7,0,0,1,0,3.39l-176.14,2.66Z" transform="translate(-450.75 -455)"/><path class="cls-9" d="M2440.25,892.13a1.7,1.7,0,0,1-1.7-1.7v-91.7c0-16.85,15.3-30.55,34.11-30.55l152.47-2.3h0a1.7,1.7,0,0,1,0,3.4l-152.5,2.29c-17,0-30.73,12.18-30.73,27.16v91.7A1.7,1.7,0,0,1,2440.25,892.13Z" transform="translate(-450.75 -455)"/><path class="cls-8" d="M2406.26,1016.69,2404,1153.1a6.1,6.1,0,0,0,10,4.72l100-81.9Z" transform="translate(-450.75 -455)"/><rect class="cls-25" x="2026.35" y="360.56" width="670.87" height="28.98" rx="3.87"/><rect class="cls-25" x="2026.35" y="442.91" width="239.86" height="28.98" rx="3.87"/><rect class="cls-25" x="2474.22" y="522.59" width="223" height="28.98" rx="3.87"/><rect class="cls-25" x="2299.95" y="444.2" width="397.28" height="28.98" rx="3.87"/><rect class="cls-25" x="2026.35" y="522.59" width="421.64" height="28.98" rx="3.87"/><ellipse class="cls-9" cx="1034.57" cy="2700.09" rx="297.44" ry="299.01" transform="translate(-2215.62 2968.94) rotate(-83.53)"/><ellipse class="cls-8" cx="1034.57" cy="2700.09" rx="287.55" ry="289.07" transform="translate(-2215.68 2968.7) rotate(-83.53)"/><path class="cls-10" d="M1300.93,2719.51h-.2a3.4,3.4,0,0,1-3.19-3.59,259.87,259.87,0,0,0-.1-33.14,3.4,3.4,0,0,1,3.17-3.61,3.36,3.36,0,0,1,3.61,3.16,269.55,269.55,0,0,1,.1,34A3.4,3.4,0,0,1,1300.93,2719.51Z" transform="translate(-450.75 -455)"/><path class="cls-10" d="M1284.87,2611.65a3.4,3.4,0,0,1-3.18-2.22c-34.82-93.42-118.2-158.45-217.6-169.72a269.13,269.13,0,0,0-47.72-1.13,3.39,3.39,0,1,1-.45-6.77,274.21,274.21,0,0,1,48.93,1.15c102,11.56,187.49,78.28,223.2,174.1a3.41,3.41,0,0,1-3.18,4.59Z" transform="translate(-450.75 -455)"/><ellipse class="cls-11" cx="1027.6" cy="2705.61" rx="243.38" ry="244.66" transform="translate(-2227.26 2967) rotate(-83.53)"/><path class="cls-26" d="M837.55,2569.88c-.18,6.21.07,12.38.47,18.56s1,12.36,1.89,18.5a232,232,0,0,0,8,36.51q2.82,9,6.48,17.72a168.14,168.14,0,0,0,8.5,17,113.78,113.78,0,0,0,24.67,29.85l1.89,1.6,2,1.48c1.34,1,2.63,2,4,2.92a80.93,80.93,0,0,0,8.79,5.06l2.27,1.13,1.13.56,1.17.47,4.68,1.86c1.56.63,3.17,1,4.76,1.55s3.19,1,4.81,1.33a145.46,145.46,0,0,0,38.79,3.72,298.12,298.12,0,0,0,37.88-3.73c12.41-2,24.64-4.54,36.75-7.22,24.18-5.42,48-11.72,71.39-16.13,5.85-1.09,11.66-2,17.4-2.64l4.28-.45,4.23-.28c1.39-.12,2.83-.16,4.27-.2s2.88-.12,4.3-.1c11.43-.09,22.62,1.05,32.89,4.07a78.45,78.45,0,0,1,14.57,6,72.19,72.19,0,0,1,12.81,8.82c8,6.75,14.48,15.61,20.06,25.43,2.72,4.95,5.23,10.16,7.53,15.52l1.68,4.07c.57,1.36,1.12,2.73,1.6,4.13l1.58,4.17c.52,1.4,1,2.82,1.47,4.24,1,2.82,1.94,5.69,2.86,8.58s1.76,5.8,2.72,8.71l2.63,8.84c.87,3,1.7,5.95,2.68,8.93v0a.63.63,0,0,0,.81.4.65.65,0,0,0,.44-.54c.37-3.12.62-6.25.85-9.39s.29-6.29.3-9.43a179.41,179.41,0,0,0-.87-18.94,165.56,165.56,0,0,0-3-19,140.87,140.87,0,0,0-5.71-18.73,110.69,110.69,0,0,0-9-18c-.94-1.43-1.91-2.83-2.87-4.25l-3.15-4.1a81.1,81.1,0,0,0-7-7.69,86.22,86.22,0,0,0-36.06-20.61,137.27,137.27,0,0,0-39.77-4.84c-1.64,0-3.26.09-4.89.14s-3.25.1-4.91.25l-5,.41-4.86.57c-6.45.83-12.77,1.91-19,3.16-12.42,2.48-24.52,5.46-36.47,8.6l-35.59,9.29c-11.79,3-23.56,5.86-35.32,8.16a284.17,284.17,0,0,1-35.2,5,132.06,132.06,0,0,1-34.29-1.48c-1.41-.2-2.73-.59-4.09-.91s-2.73-.6-4-1l-3.93-1.28-1-.32-.94-.4-1.88-.81a66.5,66.5,0,0,1-7.33-3.62c-1.2-.69-2.35-1.51-3.53-2.25l-1.77-1.15-1.69-1.27a91.69,91.69,0,0,1-12.73-11.3,124.76,124.76,0,0,1-10.89-13.52,156.36,156.36,0,0,1-9.15-15.11c-2.73-5.27-5.25-10.68-7.52-16.23s-4.27-11.23-6.15-17-3.48-11.6-4.93-17.5a284.56,284.56,0,0,1-6.53-36v0a.62.62,0,0,0-.7-.55A.64.64,0,0,0,837.55,2569.88Z" transform="translate(-450.75 -455)"/><path class="cls-27" d="M1001.56,2717.73a2.75,2.75,0,0,0,.19-.28l35.42-58.66a3.12,3.12,0,1,0-5.35-3.22l-35.43,58.67a3.12,3.12,0,0,0,5.17,3.49Z" transform="translate(-450.75 -455)"/><path class="cls-28" d="M962.39,2722.35l.14-.19,62.85-97.78a3.12,3.12,0,1,0-5.26-3.37l-62.85,97.78a3.12,3.12,0,0,0,5.12,3.56Z" transform="translate(-450.75 -455)"/><path class="cls-29" d="M1019.67,2587.25a3.13,3.13,0,1,0-5-3.77l-97.94,129.17h0a3.13,3.13,0,1,0,5,3.77l97.94-129.16Z" transform="translate(-450.75 -455)"/><path class="cls-30" d="M1004.35,2561.66a3.12,3.12,0,1,0-5-3.8l-111,141.48a3.12,3.12,0,1,0,4.91,3.86l111-141.48Z" transform="translate(-450.75 -455)"/><path class="cls-31" d="M874.64,2683a.1.1,0,0,0,0,0l103.86-144.17a3.12,3.12,0,1,0-5.07-3.65L869.61,2679.29a3.12,3.12,0,1,0,5,3.7Z" transform="translate(-450.75 -455)"/><path class="cls-32" d="M858.31,2653.22l.06-.08,89.32-126.32a3.12,3.12,0,1,0-5.1-3.6l-89.32,126.32a3.12,3.12,0,0,0,5,3.68Z" transform="translate(-450.75 -455)"/><path class="cls-33" d="M850.41,2620.75a.83.83,0,0,0,.13-.18l62.11-96.23a3.12,3.12,0,0,0-5.24-3.4l-62.11,96.23a3.12,3.12,0,0,0,5.11,3.58Z" transform="translate(-450.75 -455)"/><path class="cls-34" d="M1137.15,2689.83a3.12,3.12,0,0,0-4.66-4.13L1047.82,2767a3.12,3.12,0,1,0,4.32,4.51l84.67-81.33A3.17,3.17,0,0,0,1137.15,2689.83Z" transform="translate(-450.75 -455)"/><path class="cls-35" d="M1164.54,2690.14a3.12,3.12,0,0,0-4.88-3.88l-99.9,118.86a3.13,3.13,0,1,0,4.78,4l99.89-118.87A.76.76,0,0,0,1164.54,2690.14Z" transform="translate(-450.75 -455)"/><path class="cls-36" d="M1192.83,2697.89a3.12,3.12,0,1,0-4.95-3.8l-114.82,146.45a3.12,3.12,0,1,0,4.91,3.85l114.82-146.45A.1.1,0,0,0,1192.83,2697.89Z" transform="translate(-450.75 -455)"/><path class="cls-37" d="M1099.46,2871.6a3.13,3.13,0,0,1-.68-4.38C1129,2825.55,1207.41,2717,1211,2711.34a3.29,3.29,0,0,1,.62-.87,3.13,3.13,0,0,1,4.44,0c1.87,1.88.61,3.71-.86,5.83-.81,1.17-2,2.88-3.54,5-3.05,4.31-7.43,10.44-12.7,17.79-9.31,13-22.33,31.07-38.69,53.73-28.18,39-56.41,78-56.41,78l0,0A3.15,3.15,0,0,1,1099.46,2871.6Zm112.12-156.69a3.32,3.32,0,0,1-.52-.68A3.32,3.32,0,0,0,1211.58,2714.91Zm-.9-2.36a2.73,2.73,0,0,1,.21-1A2.81,2.81,0,0,0,1210.68,2712.55Z" transform="translate(-450.75 -455)"/><path class="cls-38" d="M1140.13,2883.2c.06-.09.12-.17.18-.27l91.51-150.67a3.12,3.12,0,1,0-5.34-3.23L1135,2879.7a3.12,3.12,0,0,0,5.17,3.5Z" transform="translate(-450.75 -455)"/><path class="cls-39" d="M1187.48,2888.83a2.7,2.7,0,0,0,.35-.59l55.73-121.62a3.12,3.12,0,1,0-5.69-2.58l-55.73,121.62a3.12,3.12,0,0,0,1.53,4.15A3.15,3.15,0,0,0,1187.48,2888.83Z" transform="translate(-450.75 -455)"/><path class="cls-40" d="M860.35,2534a221.75,221.75,0,0,1,37.45-5.53,158.4,158.4,0,0,1,36.66,1.75,114.25,114.25,0,0,1,17.31,4.39,100.24,100.24,0,0,1,16,7.13A88.86,88.86,0,0,1,982,2551.7a92.35,92.35,0,0,1,12.17,12.44,116.45,116.45,0,0,1,17.76,30.7c1.18,2.77,2.14,5.65,3.18,8.49s1.88,5.77,2.67,8.73c1.72,5.85,3.05,11.85,4.26,17.89.53,3,1.15,6.06,1.57,9.13l.69,4.6.64,4.72,2.52,19,5,38c3.5,25.36,7,50.86,13,76.16a263,263,0,0,0,11.44,37.49,129.92,129.92,0,0,0,19.81,34.51,95.12,95.12,0,0,0,31.27,24.8c12,5.87,24.84,9.21,37.69,11.05a217.12,217.12,0,0,0,38.68,1.7c6.43-.25,12.84-.66,19.22-1.32s12.74-1.41,19.08-2.31a.64.64,0,0,0,.54-.71.63.63,0,0,0-.66-.54c-12.74.66-25.48.93-38.14.52-6.33-.21-12.64-.66-18.9-1.3s-12.47-1.63-18.58-2.85c-12.22-2.47-24.09-6.35-34.66-12.33a85.88,85.88,0,0,1-27-23.52c-7.23-9.63-12.48-20.72-16.7-32.27a250.91,250.91,0,0,1-9.69-36c-2.48-12.3-4.34-24.8-6.07-37.35s-3.22-25.19-4.66-37.86l-4.37-38.08q-1.1-9.54-2.28-19.07l-.6-4.78-.69-4.89c-.41-3.26-1-6.51-1.57-9.76-1.23-6.49-2.6-13-4.41-19.39-.82-3.22-1.9-6.38-2.89-9.57s-2.19-6.32-3.48-9.43a133.16,133.16,0,0,0-20.29-35.18,105.14,105.14,0,0,0-14.62-14.61,98.43,98.43,0,0,0-17.38-11.26,105.47,105.47,0,0,0-39.28-10.68,136.49,136.49,0,0,0-39.66,2.95,152.72,152.72,0,0,0-18.88,5.44,121.21,121.21,0,0,0-17.86,7.93.63.63,0,0,0,.44,1.17Z" transform="translate(-450.75 -455)"/><circle class="cls-9" cx="743.08" cy="1824.06" r="292.33" transform="translate(-1522.91 604.69) rotate(-45)"/><circle class="cls-8" cx="743.08" cy="1824.06" r="282.61" transform="translate(-1522.91 604.69) rotate(-45)"/><path class="cls-3" d="M482.56,1813.2h-.16a3,3,0,0,1-2.82-3.14,266.2,266.2,0,0,1,3.83-33.14,3,3,0,1,1,5.88,1.06,259.85,259.85,0,0,0-3.75,32.39A3,3,0,0,1,482.56,1813.2Z" transform="translate(-450.75 -455)"/><path class="cls-3" d="M510,1709.65a2.93,2.93,0,0,1-1.34-.32,3,3,0,0,1-1.32-4c45.18-89.52,135.5-145.12,235.7-145.12a266.58,266.58,0,0,1,47.6,4.28,3,3,0,1,1-1.07,5.87,261.17,261.17,0,0,0-46.53-4.18c-97.94,0-186.21,54.35-230.37,141.84A3,3,0,0,1,510,1709.65Z" transform="translate(-450.75 -455)"/><circle class="cls-11" cx="749.24" cy="1830.22" r="239.19" transform="translate(-1525.46 610.85) rotate(-45)"/><path class="cls-41" d="M914,1843.92a39.72,39.72,0,1,0-72.89-31.57l-28,64.58c21.33,15.7,45.64,26.94,70.21,37.77Z" transform="translate(-450.75 -455)"/><path class="cls-42" d="M892.55,1893.45,871.09,1943a39.72,39.72,0,1,1-72.89-31.57l21.45-49.53Z" transform="translate(-450.75 -455)"/><path class="cls-43" d="M797.2,1671l-69.9,1.91v79.47l72.07-2A39.72,39.72,0,0,0,797.2,1671Z" transform="translate(-450.75 -455)"/><path class="cls-44" d="M745.41,1751.83l-54,1.48a39.72,39.72,0,1,1-2.17-79.41l54-1.48Z" transform="translate(-450.75 -455)"/><path class="cls-45" d="M723.33,1901.27l-65.51-29.62c-12.09,23.53-24.54,47.21-34.42,71.62l67.21,30.38a39.72,39.72,0,0,0,32.72-72.38Z" transform="translate(-450.75 -455)"/><path class="cls-46" d="M641.42,1951.42l-49.18-22.24A39.72,39.72,0,1,1,625,1856.79L674.15,1879Z" transform="translate(-450.75 -455)"/></svg>