<svg xmlns="http://www.w3.org/2000/svg" viewBox="0 0 462.88 460.41"><defs><style>.cls-1,.cls-15{fill:#92e3a9;}.cls-10,.cls-11,.cls-13,.cls-2,.cls-9{fill:#fff;}.cls-2{opacity:0.8;}.cls-3,.cls-6,.cls-7,.cls-8{fill:none;}.cls-10,.cls-14,.cls-15,.cls-3,.cls-4,.cls-6,.cls-7{stroke:#263238;}.cls-10,.cls-14,.cls-15,.cls-3,.cls-4,.cls-8{stroke-linecap:round;}.cls-10,.cls-14,.cls-15,.cls-3,.cls-4,.cls-7,.cls-8{stroke-linejoin:round;}.cls-4,.cls-5{fill:#263238;}.cls-11,.cls-13,.cls-6{stroke-miterlimit:10;}.cls-7{stroke-width:3px;}.cls-11,.cls-13,.cls-8{stroke:#fff;}.cls-9{opacity:0.35;}.cls-11,.cls-12{opacity:0.4;}.cls-14{fill:#a3a3a3;}</style></defs><g id="Background_Simple" data-name="Background Simple"><path class="cls-1" d="M188.76,444.23c105.5,19.45,210.48-68.29,258.77-152.41,32.09-55.9,44.87-121.51,26.15-174.9C460,77.8,425.44,39.9,374.12,38.23c-57.2-1.85-103.24,54.14-162,53S84,114.19,50.37,157.84,9.88,281.1,38.48,342.86c16.31,35.21,45.18,65.37,82.71,83.68,20.63,10,42.92,12.91,66.28,17.44Z" transform="translate(-19.5 -11.4)"/><path class="cls-2" d="M188.76,444.23c105.5,19.45,210.48-68.29,258.77-152.41,32.09-55.9,44.87-121.51,26.15-174.9C460,77.8,425.44,39.9,374.12,38.23c-57.2-1.85-103.24,54.14-162,53S84,114.19,50.37,157.84,9.88,281.1,38.48,342.86c16.31,35.21,45.18,65.37,82.71,83.68,20.63,10,42.92,12.91,66.28,17.44Z" transform="translate(-19.5 -11.4)"/></g><g id="Devices"><rect class="cls-3" x="34.5" y="62.53" width="28" height="397.38"/><rect class="cls-3" x="15.5" y="168.8" width="66" height="109"/><rect class="cls-4" x="20.31" y="220.21" width="8.07" height="9.87"/><rect class="cls-4" x="20.31" y="249.29" width="8.07" height="9.87"/><rect class="cls-4" x="20.31" y="234.75" width="8.07" height="9.87"/><rect class="cls-4" x="20.31" y="175.04" width="8.07" height="11.41"/><rect class="cls-4" x="20.31" y="205.66" width="8.07" height="9.87"/><rect class="cls-4" x="20.31" y="263.84" width="8.07" height="9.81"/><rect class="cls-4" x="20.31" y="191.12" width="8.07" height="9.87"/><path class="cls-3" d="M32.54,33.74H66.3a8.31,8.31,0,0,1,8.31,8.31V62.31a0,0,0,0,1,0,0H24.23a0,0,0,0,1,0,0V42.05A8.31,8.31,0,0,1,32.54,33.74Z"/><polyline class="cls-3" points="225.17 76.28 225.17 139.23 149.08 139.23 149.08 76.28"/><polyline class="cls-3" points="232.83 0.5 232.83 76.23 141.42 76.23 141.42 0.5"/><rect class="cls-3" x="155.92" y="139.29" width="62.41" height="48.19"/><rect class="cls-3" x="164.47" y="187.53" width="45.31" height="47.82"/><path class="cls-3" d="M269.33,205.74a27,27,0,0,0-27,27v14h-70v22h124v-36A27,27,0,0,0,269.33,205.74Z" transform="translate(-19.5 -11.4)"/><path class="cls-5" d="M412.33,194.9h-7V123.33a3.5,3.5,0,0,1,3.5-3.5h31v7H412.33Z" transform="translate(-19.5 -11.4)"/><path class="cls-5" d="M412.33,268.61h-7v71.57a3.5,3.5,0,0,0,3.5,3.5h31v-7H412.33Z" transform="translate(-19.5 -11.4)"/><rect class="cls-3" x="339.5" y="183.34" width="92" height="74"/><rect class="cls-3" x="295.83" y="199.14" width="43.67" height="58.21"/><rect class="cls-3" x="295.83" y="141.14" width="43.67" height="58.21"/><rect class="cls-3" x="295.83" y="257.14" width="43.67" height="58.21"/><rect class="cls-3" x="295.83" y="141.14" width="43.67" height="10"/><line class="cls-3" x1="295.83" y1="257.34" x2="276.83" y2="257.34"/><line class="cls-3" x1="295.83" y1="253.16" x2="276.83" y2="253.16"/><path class="cls-6" d="M354,223.87H321.33a2,2,0,0,1,0-4H354a2,2,0,0,1,0,4Z" transform="translate(-19.5 -11.4)"/><path class="cls-6" d="M354,235.2H321.33a2,2,0,0,1,0-4H354a2,2,0,0,1,0,4Z" transform="translate(-19.5 -11.4)"/><path class="cls-6" d="M354,246.53H321.33a2,2,0,0,1,0-4H354a2,2,0,0,1,0,4Z" transform="translate(-19.5 -11.4)"/><path class="cls-6" d="M354,257.87H321.33a2,2,0,0,1,0-4H354a2,2,0,0,1,0,4Z" transform="translate(-19.5 -11.4)"/><circle class="cls-6" cx="349.5" cy="190.8" r="3.67"/><path class="cls-6" d="M396,202.2a3.67,3.67,0,1,1-3.67-3.67A3.67,3.67,0,0,1,396,202.2Z" transform="translate(-19.5 -11.4)"/><path class="cls-6" d="M419.33,202.2a3.67,3.67,0,1,1-3.66-3.67A3.66,3.66,0,0,1,419.33,202.2Z" transform="translate(-19.5 -11.4)"/><circle class="cls-6" cx="419.5" cy="190.8" r="3.67"/><polyline class="cls-7" points="249.83 194.34 249.83 147.8 218.83 147.8"/><rect class="cls-4" x="349.71" y="203.72" width="55" height="42.09"/><line class="cls-8" x1="377.21" y1="207.03" x2="377.21" y2="218.65"/><line class="cls-8" x1="377.21" y1="230.56" x2="377.21" y2="242.18"/><line class="cls-8" x1="394.78" y1="224.61" x2="383.17" y2="224.61"/><line class="cls-8" x1="371.25" y1="224.61" x2="359.63" y2="224.61"/><rect class="cls-3" x="269.18" y="372.6" width="76.32" height="63.39"/><rect class="cls-4" x="275.66" y="377.98" width="63.36" height="52.63"/><line class="cls-8" x1="290.84" y1="384.47" x2="335.33" y2="384.47"/><line class="cls-8" x1="281.44" y1="384.47" x2="285.51" y2="384.47"/><line class="cls-8" x1="320.61" y1="389.8" x2="335.33" y2="389.8"/><line class="cls-8" x1="292.72" y1="389.8" x2="314.65" y2="389.8"/><line class="cls-8" x1="281.44" y1="389.8" x2="288.02" y2="389.8"/><line class="cls-8" x1="281.44" y1="395.12" x2="335.33" y2="395.12"/><line class="cls-8" x1="314.34" y1="400.45" x2="335.33" y2="400.45"/><line class="cls-8" x1="281.44" y1="400.45" x2="303.06" y2="400.45"/><line class="cls-8" x1="304.94" y1="405.78" x2="335.33" y2="405.78"/><line class="cls-8" x1="281.44" y1="405.78" x2="298.67" y2="405.78"/><line class="cls-8" x1="281.44" y1="411.1" x2="335.33" y2="411.1"/><line class="cls-8" x1="309.95" y1="416.43" x2="335.33" y2="416.43"/><line class="cls-8" x1="281.44" y1="416.43" x2="302.12" y2="416.43"/><polyline class="cls-3" points="301.05 459.81 301.05 435.97 311.88 435.97 311.88 459.78"/><rect class="cls-3" x="360.8" y="349.05" width="96.93" height="80.51"/><rect class="cls-4" x="369.03" y="355.89" width="80.47" height="66.84"/><rect class="cls-9" x="371.2" y="372.59" width="39.51" height="48.85"/><rect class="cls-9" x="413.58" y="372.59" width="35.2" height="5.75"/><rect class="cls-9" x="413.58" y="380.98" width="35.2" height="5.75"/><rect class="cls-9" x="413.58" y="389.36" width="35.2" height="5.75"/><rect class="cls-9" x="413.58" y="397.74" width="35.2" height="5.75"/><rect class="cls-9" x="413.58" y="406.12" width="35.2" height="5.75"/><rect class="cls-9" x="371.2" y="360.14" width="77.11" height="8.38"/><polyline class="cls-3" points="401.27 459.81 401.27 429.54 415.03 429.54 415.03 459.77"/><line class="cls-3" x1="447.5" y1="459.8" x2="455.5" y2="459.8"/><line class="cls-3" x1="0.5" y1="459.8" x2="435.5" y2="459.8"/></g><g id="Bed"><path class="cls-10" d="M13,439.8H348.5a4,4,0,0,1,4,4v12a4,4,0,0,1-4,4H13a3.5,3.5,0,0,1-3.5-3.5v-13a3.5,3.5,0,0,1,3.5-3.5Z"/></g><g id="Character"><path class="cls-10" d="M180.2,208s4.24-7.95,4.24-13.78-2.38-20.92-2.12-22.25,7.15-10.86,8-11.92,7.41-2.65,7.41-2.65l1.06,4a32.82,32.82,0,0,0-4.23,3.17c-1.33,1.33-2.92,5-2.92,5a17.79,17.79,0,0,1,5-3.18c2.38-.8,4.23-1.33,4.23-1.33v9.28s.53,9.53-.53,14.83S188.15,212,187.88,212.75,180.2,208,180.2,208Z" transform="translate(-19.5 -11.4)"/><path class="cls-4" d="M177,103.61s10.07,27.28,14.84,43.71,7.68,47.15,7.68,50.86v13.51s18-7.16,44.5-6.36,57.75,4,57.75,4L297,165.06l-9.27-40.79L279.54,84.8S198,102,177,103.61Z" transform="translate(-19.5 -11.4)"/><path class="cls-11" d="M212.16,102.75s0,2.73-2.73,6.83-20.49,11.61-20.49,11.61l7.39,32.47,6.27.31s7.52,23.9,8.88,28.68,4.78,19.13,4.78,19.13A204.05,204.05,0,0,1,240.17,199c13-.68,40.29,2.74,40.29,2.74L277.05,143l10.24-2-6.83-34.15-32.78-6.14-1.37-4.78Z" transform="translate(-19.5 -11.4)"/><path class="cls-5" d="M228.8,124.6S222,113,212.93,119.82s-6.23,26-4,36.2,5.1,29.37,6.8,31.41,4-2,5.09-6.14S231.63,169,231.63,169V147.82C231.63,141.68,232.2,131.43,228.8,124.6Z" transform="translate(-19.5 -11.4)"/><g class="cls-12"><path class="cls-13" d="M206.7,137.89a1,1,0,0,1-.59-1.8c.15-.11,15.55-11.26,27.83-2a1,1,0,0,1-1.2,1.6c-11.1-8.34-25.3,1.95-25.45,2A1,1,0,0,1,206.7,137.89Z" transform="translate(-19.5 -11.4)"/></g><g class="cls-12"><path class="cls-13" d="M207.38,149.5a1,1,0,0,1-.6-.2,1,1,0,0,1-.19-1.4c.27-.36,6.84-8.88,15.33-9.34,4.15-.23,8,1.51,11.46,5.16a1,1,0,0,1-1.45,1.38c-3-3.21-6.36-4.73-9.89-4.54-7.57.4-13.8,8.47-13.86,8.55A1,1,0,0,1,207.38,149.5Z" transform="translate(-19.5 -11.4)"/></g><g class="cls-12"><path class="cls-13" d="M208.07,159.75a1,1,0,0,1-.54-.16,1,1,0,0,1-.3-1.38c.27-.43,6.88-10.57,15.06-11.1,3.56-.23,6.86,1.4,9.76,4.85a1,1,0,0,1-1.53,1.29c-2.47-2.94-5.2-4.33-8.1-4.14-7.17.45-13.45,10.08-13.51,10.18A1,1,0,0,1,208.07,159.75Z" transform="translate(-19.5 -11.4)"/></g><g class="cls-12"><path class="cls-13" d="M211.48,170a1,1,0,0,1-.56-.17,1,1,0,0,1-.27-1.39c.26-.38,6.4-9.28,14-9.65,3.48-.18,6.64,1.44,9.44,4.79A1,1,0,0,1,234,165a1,1,0,0,1-1.41-.13c-2.37-2.84-5-4.21-7.8-4.08-6.63.33-12.4,8.7-12.46,8.79A1,1,0,0,1,211.48,170Z" transform="translate(-19.5 -11.4)"/></g><g class="cls-12"><path class="cls-13" d="M218.31,185h0a1,1,0,0,1-1-1c0-.39.44-9.54,5.79-13.91a10.53,10.53,0,0,1,8.69-2.06,1,1,0,1,1-.32,2,8.63,8.63,0,0,0-7.1,1.64c-4.65,3.79-5.06,12.35-5.06,12.44A1,1,0,0,1,218.31,185Z" transform="translate(-19.5 -11.4)"/></g><g class="cls-12"><path class="cls-13" d="M229.24,129.7a1,1,0,0,1-.79-.38c-6.9-8.79-19.77-1.86-19.9-1.79a1,1,0,0,1-1-1.76c.14-.08,14.49-7.8,22.44,2.31a1,1,0,0,1-.17,1.41A1,1,0,0,1,229.24,129.7Z" transform="translate(-19.5 -11.4)"/></g><path class="cls-5" d="M242.49,120.46s4.25-13,15.3-8.73,12.72,23.58,12.85,34.1,1.79,29.82.53,32.24-4.61-1-6.77-4.65-14.13-9.15-14.13-9.15-3.63-14.58-5.11-20.55S240.62,128,242.49,120.46Z" transform="translate(-19.5 -11.4)"/><g class="cls-12"><path class="cls-13" d="M242.26,130.9a1,1,0,0,1-.67-.26,1,1,0,0,1-.07-1.41c10.28-11.4,27.53-3.42,27.7-3.34a1,1,0,1,1-.85,1.81c-.16-.08-16.09-7.42-25.36,2.87A1,1,0,0,1,242.26,130.9Z" transform="translate(-19.5 -11.4)"/></g><g class="cls-12"><path class="cls-13" d="M244.77,140.15a1,1,0,0,1-.53-.15,1,1,0,0,1-.31-1.38c2.69-4.25,6.14-6.69,10.25-7.27,8.43-1.18,16.5,5.92,16.84,6.22a1,1,0,0,1,.08,1.42,1,1,0,0,1-1.41.08c-.07-.07-7.73-6.79-15.24-5.74-3.5.5-6.47,2.63-8.83,6.36A1,1,0,0,1,244.77,140.15Z" transform="translate(-19.5 -11.4)"/></g><g class="cls-12"><path class="cls-13" d="M271.65,149.5a1,1,0,0,1-.72-.3c-.08-.08-8.07-8.32-15.21-7.4-2.89.37-5.3,2.26-7.16,5.62a1,1,0,1,1-1.75-1c2.19-3.94,5.1-6.18,8.65-6.64,8.12-1,16.56,7.63,16.92,8a1,1,0,0,1,0,1.42A1,1,0,0,1,271.65,149.5Z" transform="translate(-19.5 -11.4)"/></g><g class="cls-12"><path class="cls-13" d="M270.27,160.21a1,1,0,0,1-.7-.28c-.08-.08-7.37-7.19-13.92-6.23-2.78.4-5.09,2.26-6.87,5.5a1,1,0,1,1-1.75-1c2.1-3.83,4.9-6,8.34-6.52,7.55-1.1,15.28,6.46,15.6,6.78a1,1,0,0,1,0,1.42A1,1,0,0,1,270.27,160.21Z" transform="translate(-19.5 -11.4)"/></g><g class="cls-12"><path class="cls-13" d="M266.45,176.27a1,1,0,0,1-1-.77c0-.08-2.06-8.4-7.36-11.23a8.55,8.55,0,0,0-7.28-.25,1,1,0,1,1-.69-1.87,10.47,10.47,0,0,1,8.92.36c6.09,3.26,8.27,12.15,8.36,12.53a1,1,0,0,1-.74,1.2Z" transform="translate(-19.5 -11.4)"/></g><g class="cls-12"><path class="cls-13" d="M245.1,124.08a.91.91,0,0,1-.45-.11,1,1,0,0,1-.44-1.34c5.86-11.45,21.43-6.63,21.58-6.58a1,1,0,0,1,.65,1.26,1,1,0,0,1-1.26.65c-.57-.19-14.1-4.36-19.18,5.58A1,1,0,0,1,245.1,124.08Z" transform="translate(-19.5 -11.4)"/></g><g class="cls-12"><path class="cls-13" d="M231.29,127h0c-.54,0-13.21-.73-22.1-3.46-8.33-2.56-14.12,1.2-14.18,1.24a1,1,0,0,1-1.11-1.66c.27-.18,6.65-4.33,15.88-1.49,8.66,2.66,21.48,3.36,21.61,3.37a1,1,0,0,1-.05,2Z" transform="translate(-19.5 -11.4)"/></g><g class="cls-12"><path class="cls-13" d="M238.8,126.28a1,1,0,0,1-.21-2c.09,0,9.45-2.07,16-6.67,6.81-4.77,19.24-7.7,25.16-7.7a1,1,0,0,1,0,2c-5.66,0-17.53,2.79-24,7.33-6.91,4.85-16.35,6.91-16.75,7A.75.75,0,0,1,238.8,126.28Z" transform="translate(-19.5 -11.4)"/></g><path class="cls-11" d="M226.51,100s2.12,12.33,3.41,18.44C233,133,239,180.21,239,185s-1.57,13.36-1.57,13.36l9.57-.67-8.2-65.57-4.47-23.78-1.09-9.63Z" transform="translate(-19.5 -11.4)"/><path class="cls-11" d="M232.74,135.65s-2.41,16.68-2.41,22,4,8,8,9.33,15.34,2.67,15.34-.66S252.33,151,252.33,151l-4.66-6.66s-.67-9.45-4.66-13.76S231.81,123,232.74,135.65Z" transform="translate(-19.5 -11.4)"/><path class="cls-11" d="M272.13,200.69s4.87-16.36-14.46-25-21.87-5.63-29.34,0-8,17.33-8,17.33l.67,8S240.89,196.45,272.13,200.69Z" transform="translate(-19.5 -11.4)"/><path class="cls-4" d="M142.06,253.27s4-9,15.1-19.86,21.72-26,21.72-26l1.32-1.33s1.06-1.06,6.62,1.33a16.14,16.14,0,0,1,7.69,6.35s-4.24,8.48-9.28,17.22-11.39,19.08-12.45,22.25-3.7,8-4,8.75-13.77,4.23-20.93,2.64S138.08,259.37,142.06,253.27Z" transform="translate(-19.5 -11.4)"/><path class="cls-10" d="M146.68,181.85a14.51,14.51,0,0,0,4.71,5c2.83,1.57,10.05.63,10.05,4.08s-5,9.11-5,10.05,2.19,14.12,2.19,18.83,0,5.65-2.82,7.54-11.62,2.51-11.62,2.51-2.2,11-2.2,15.7a20,20,0,0,0,1.26,7.53s-12.56,3.77-20.09,3.77-22.29-3.77-22.29-3.77,5.33-3.14,2.2-11.93S82.32,209.79,90.8,192.52s31.4-17.27,38.62-17S146.68,181.85,146.68,181.85Z" transform="translate(-19.5 -11.4)"/><path class="cls-3" d="M149.82,190.32l2.51,2.2s-.31,3.77-3.45,3.77" transform="translate(-19.5 -11.4)"/><path class="cls-14" d="M147.62,172.43s1.89,8.79-1.88,23.86-6.59,17.58-6.59,17.58a14.39,14.39,0,0,0,2.51,6,6.73,6.73,0,0,0,4.71,2.2,6.47,6.47,0,0,1-1.88,3.77,12.52,12.52,0,0,1-3.77,1.88,4.33,4.33,0,0,0,1.57,2.2,6.82,6.82,0,0,0,3.45.94s0,2.51-4.08,5.65a13.58,13.58,0,0,1-9.1,2.51l3.13,3.14s-.62,2.2-6.9,4.4-9.73.31-9.73.31l.62,2.83s-7.84,1.88-9.41.31l-4.4-4.39-.63,4.39-6-.94-6.59-2.83s3.45-.62,3.76-2.51-.31-3.76-2.51-5.33-16.32-9.11-18.84-19.47,3.14-31.71,10.05-40.18,15.07-10.05,15.07-10.05,12.56-9.42,24.8-9.42S143.23,157.67,147.62,172.43Z" transform="translate(-19.5 -11.4)"/><path class="cls-3" d="M140.4,206.33s-4.08,11.31-9.73,18.21" transform="translate(-19.5 -11.4)"/><path class="cls-3" d="M131.61,207.59s-2.19,11.3-7.22,19.78" transform="translate(-19.5 -11.4)"/><path class="cls-3" d="M101.79,171.49A32.19,32.19,0,0,0,86.72,190" transform="translate(-19.5 -11.4)"/><path class="cls-3" d="M98.34,178.39s3.45-8.79,17-8.79" transform="translate(-19.5 -11.4)"/><path class="cls-3" d="M87.35,199.43S85.46,211,91.43,224.86" transform="translate(-19.5 -11.4)"/><path class="cls-3" d="M94.62,218.36c1.72,4.79,4.51,10.3,8.74,13.72" transform="translate(-19.5 -11.4)"/><path class="cls-3" d="M92.37,209.16a28.09,28.09,0,0,0,1,5.23" transform="translate(-19.5 -11.4)"/><path class="cls-3" d="M119.84,225.56a19.16,19.16,0,0,1-1.73,3.06" transform="translate(-19.5 -11.4)"/><path class="cls-3" d="M123.77,194.4s1,15.16-2.26,26.56" transform="translate(-19.5 -11.4)"/><path class="cls-10" d="M190.27,177.25s5.3-7.15,6.89-9.8a50,50,0,0,0,4-9.54c.26-1.32,2.65-2.12,3.18,3.18s-1.86,11.39-3.45,13.25a7.82,7.82,0,0,0-1.85,3.44s.79,8.48-.53,12.18a18.62,18.62,0,0,1-2.65,5.3" transform="translate(-19.5 -11.4)"/><path class="cls-10" d="M290.13,203.47s2.92-7.94,2.92-10.86-1.86-7.41-2.65-10.33A134.13,134.13,0,0,1,288,168c-.26-2.92-.53-5.83-.53-10.07s-.26-6.89,2.12-5,2.39,5.56,2.12,8.21-.26,3.18.53,4.5,3.18,4.24,3.18,4.24.53-7.41.53-8.47S293.31,150,293.31,150s4.24-3.18,5.3.26,1.85,3.44,2.91,5.56a28.87,28.87,0,0,0,6.1,7.42c2.64,2.38,4.5,6.89,3.7,10.33s-5.56,20.4-6.62,25.17-2.91,10.59-2.91,10.59Z" transform="translate(-19.5 -11.4)"/><path class="cls-3" d="M300.73,154.73s2.65,4.24,2.65,8" transform="translate(-19.5 -11.4)"/><path class="cls-3" d="M296.23,151.82s-.8,5-.27,8" transform="translate(-19.5 -11.4)"/><path class="cls-4" d="M238.25,261.91l17.45-4.18s14.8-21.63,22-32.63S291,199.68,291,199.68s7.21,1.9,9.49,3,7.58,8.72,7.58,8.72-12.14,25.42-17.45,46.29-11.76,31.11-15.56,32.63S241.67,298,241.67,298,241.67,271,238.25,261.91Z" transform="translate(-19.5 -11.4)"/><path class="cls-15" d="M79.05,421.25a77.93,77.93,0,0,0-4,25.12,143.83,143.83,0,0,0,2,24.83H192.53a236.49,236.49,0,0,0,4-45.62l-.29-7.8s-75.65-4.62-92.11-7.22-19.64-2.89-19.64-2.89Z" transform="translate(-19.5 -11.4)"/><path class="cls-4" d="M105.07,434.06s26.23,9.08,45.4,9.08h36l4.37-4,1.35,3.7h3.36l3.37-24.89-13.12-1Z" transform="translate(-19.5 -11.4)"/><path class="cls-3" d="M187.3,445.3c-.74,6.47-2.25,16-5.12,23" transform="translate(-19.5 -11.4)"/><path class="cls-3" d="M187.94,438.19s-.07,1.14-.23,3" transform="translate(-19.5 -11.4)"/><path class="cls-3" d="M101.34,433.46A65.78,65.78,0,0,0,99,443.27" transform="translate(-19.5 -11.4)"/><path class="cls-3" d="M174.41,461.59c-1.43.17-2.54.28-3,.28" transform="translate(-19.5 -11.4)"/><path class="cls-3" d="M189.29,459.5s-5.57.85-10.56,1.53" transform="translate(-19.5 -11.4)"/><line class="cls-3" x1="163.02" y1="446.41" x2="153.55" y2="447.77"/><path class="cls-15" d="M86.41,261S79.19,267.87,77.3,271s-1.57,14.44-1.57,20.4-1.88,16,1.26,24.8,6.9,17.58,6.9,17.58,10.36,33,11,37.36S81.7,408.83,80.13,414.79s-2.2,9.42-2.2,9.42,14.13,6.59,36.42,12.24S172.43,439.91,179,439l6.59-1,3.77-14.44,2.82,13.82a41.41,41.41,0,0,0,9.74-2.83,39.39,39.39,0,0,0,7.53-5.34s-8.79-37.67-10.36-46.77-5.34-22.61-5-32.65,2.2-35.79,2.2-35.79l42.06-1.89h3.14s5-26.37,3.14-36.73S239.92,261,239.92,261s-33.59,1.88-37.36,1.88-24.17-4.08-28.56-4.08-21.67,2.2-21.67,2.2-16.64.63-33,.63a151.22,151.22,0,0,1-29.2-2.83Z" transform="translate(-19.5 -11.4)"/><path class="cls-3" d="M104.36,310.48a37.71,37.71,0,0,0,.25,3.85" transform="translate(-19.5 -11.4)"/><path class="cls-3" d="M115.29,274.77s-8.51,14.32-10.51,29.29" transform="translate(-19.5 -11.4)"/><path class="cls-3" d="M106.5,280.11a62.6,62.6,0,0,0-5.65,30.14" transform="translate(-19.5 -11.4)"/><line class="cls-3" x1="147.28" y1="304.82" x2="176.79" y2="302.62"/><path class="cls-3" d="M190,315s-19.78,12.87-24.8,14.44" transform="translate(-19.5 -11.4)"/><path class="cls-3" d="M169.3,344.72a22.68,22.68,0,0,1-3.15,2.89" transform="translate(-19.5 -11.4)"/><path class="cls-3" d="M185,320.3s-6.3,12.6-12.92,21.15" transform="translate(-19.5 -11.4)"/><path class="cls-3" d="M139.78,300.83s4.39,14.44,13.81,21" transform="translate(-19.5 -11.4)"/><path class="cls-3" d="M139.46,315.27s6.28,6.28,11.3,8.79" transform="translate(-19.5 -11.4)"/><path class="cls-3" d="M138.07,381.64c.78.53,1.56,1,2.33,1.44" transform="translate(-19.5 -11.4)"/><path class="cls-3" d="M109,346.67s12.65,21.48,25.67,32.39" transform="translate(-19.5 -11.4)"/><path class="cls-4" d="M190.68,314.6l.4-.24-5.75.55-2.06.12v.08l-13.11,1.25,12.46,3,0,.52c.78.65,1.95,2.29-.12,5.51l11.81,15.47L196.4,317l.4-2.78Z" transform="translate(-19.5 -11.4)"/><path class="cls-15" d="M93.31,247.46s8.79,4.71,28.26,4.4,22.6-2.52,25.11-2.2,7.54,11,7.54,11-9.11,5.65-30.45,6A113.17,113.17,0,0,1,86.41,261S91.12,247.46,93.31,247.46Z" transform="translate(-19.5 -11.4)"/></g></svg>